<?xml version="1.0" encoding="utf-8"?>
<!-- Generator: Adobe Illustrator 18.1.1, SVG Export Plug-In . SVG Version: 6.00 Build 0)  -->
<svg version="1.1" id="Layer_1" xmlns="http://www.w3.org/2000/svg" xmlns:xlink="http://www.w3.org/1999/xlink" x="0px" y="0px"
	 viewBox="-301 384 9 25" enable-background="new -301 384 9 25" xml:space="preserve">
<path fill="#14282A" d="M-294.7,391.7v-7.3c0-0.2-0.2-0.4-0.4-0.4h-2.7c-0.3,0-0.5,0.2-0.5,0.4v7.3c-1.7,0.9-2.7,2.5-2.7,4.3v12.6
	c0,0.2,0.2,0.4,0.4,0.4h8.1c0.3,0,0.4-0.2,0.4-0.4V396C-292,394.2-293,392.6-294.7,391.7z M-295.6,389.8h-1.8v-2.9h1.8V389.8z
	 M-295.6,384.8v1.2h-1.8v-1.2H-295.6z M-292.9,408.2h-7.2V396c0-1.6,0.9-3,2.5-3.7c0.2-0.1,0.3-0.2,0.3-0.4v-1.2h1.8v1.2
	c0,0.1,0.1,0.3,0.3,0.4c1.5,0.7,2.5,2.1,2.5,3.7L-292.9,408.2L-292.9,408.2z"/>
<path fill="#14282A" d="M-298.6,397c-0.2,0-0.4,0.2-0.4,0.4v7.2c0,0.2,0.2,0.4,0.4,0.4h4.2c0.2,0,0.4-0.2,0.4-0.4v-7.2
	c0-0.2-0.2-0.4-0.4-0.4H-298.6z M-294.8,404.2h-3.4v-6.4h3.3L-294.8,404.2L-294.8,404.2z"/>
</svg>
