<?xml version="1.0" encoding="utf-8"?>
<!-- Generator: Adobe Illustrator 18.1.1, SVG Export Plug-In . SVG Version: 6.00 Build 0)  -->
<svg version="1.1" id="Layer_1" xmlns="http://www.w3.org/2000/svg" xmlns:xlink="http://www.w3.org/1999/xlink" x="0px" y="0px"
	 viewBox="-295 387 20 20" enable-background="new -295 387 20 20" xml:space="preserve">
<path fill="#0C282A" d="M-277.6,388.6h-1.8v-0.9c0-0.3-0.3-0.6-0.6-0.6s-0.6,0.3-0.6,0.6v0.9h-8.8v-0.9c0-0.3-0.3-0.6-0.6-0.6
	s-0.6,0.3-0.6,0.6v0.9h-1.8c-1.4,0-2.6,1.2-2.6,2.6v13.3c0,1.4,1.2,2.6,2.6,2.6h14.8c1.4,0,2.6-1.2,2.6-2.6v-13.3
	C-275,389.7-276.2,388.6-277.6,388.6z M-292.4,389.8h1.8v0.6c0,0.3,0.3,0.6,0.6,0.6s0.6-0.3,0.6-0.6v-0.6h8.8v0.6
	c0,0.3,0.3,0.6,0.6,0.6s0.6-0.3,0.6-0.6v-0.6h1.8c0.7,0,1.3,0.6,1.3,1.3v1.5h-17.5v-1.5C-293.8,390.4-293.2,389.8-292.4,389.8z
	 M-277.6,405.8h-14.8c-0.7,0-1.3-0.6-1.3-1.3v-10.5h17.5v10.5C-276.3,405.2-276.8,405.8-277.6,405.8z"/>
</svg>
