<?xml version="1.0" encoding="utf-8"?>
<!-- Generator: Adobe Illustrator 18.1.1, SVG Export Plug-In . SVG Version: 6.00 Build 0)  -->
<svg version="1.1" id="Layer_1" xmlns="http://www.w3.org/2000/svg" xmlns:xlink="http://www.w3.org/1999/xlink" x="0px" y="0px"
	 viewBox="-295 387 20 20" enable-background="new -295 387 20 20" xml:space="preserve">
<path fill="#14282A" d="M-275.6,389.7c-0.3-0.3-0.8-0.3-1.1,0l-9,9l-3.3-3.5c-0.3-0.3-0.8-0.3-1.1,0c-0.3,0.3-0.3,0.8,0,1.1l3.8,4.1
	c0.1,0.2,0.3,0.2,0.5,0.2c0,0,0,0,0,0c0.2,0,0.4-0.1,0.5-0.2l9.6-9.6C-275.3,390.5-275.3,390-275.6,389.7z"/>
<path fill="#14282A" d="M-275.8,396.2c-0.4,0-0.8,0.3-0.8,0.8c0,4.7-3.8,8.5-8.5,8.5c-4.7,0-8.5-3.8-8.5-8.5c0-4.7,3.8-8.5,8.5-8.5
	c0.4,0,0.8-0.3,0.8-0.8c0-0.4-0.3-0.8-0.8-0.8c-5.5,0-10,4.5-10,10c0,5.5,4.5,10,10,10c5.5,0,10-4.5,10-10
	C-275,396.6-275.3,396.2-275.8,396.2z"/>
</svg>
