<?xml version="1.0" encoding="utf-8"?>
<!-- Generator: Adobe Illustrator 18.1.1, SVG Export Plug-In . SVG Version: 6.00 Build 0)  -->
<svg version="1.1" id="Layer_1" xmlns="http://www.w3.org/2000/svg" xmlns:xlink="http://www.w3.org/1999/xlink" x="0px" y="0px"
	 viewBox="-294 387 22 20" enable-background="new -294 387 22 20" xml:space="preserve">
<path fill="#14282A" d="M-275.4,387h-15.1c-1.9,0-3.4,1.5-3.4,3.4v9.3c0,1.9,1.5,3.4,3.4,3.4h5.3c0.5,0,0.9-0.4,0.9-0.9
	c0-0.5-0.4-0.9-0.9-0.9h-5.3c-0.9,0-1.7-0.8-1.7-1.7v-6.4h18.6v2.1c0,0.5,0.4,0.9,0.9,0.9c0.5,0,0.9-0.4,0.9-0.9v-4.9
	C-272,388.5-273.5,387-275.4,387z M-273.7,391.6h-18.6v-1.1c0-0.9,0.8-1.7,1.7-1.7h15.1c0.9,0,1.7,0.8,1.7,1.7V391.6z"/>
<path fill="#14282A" d="M-272.4,398.1c-0.4-0.3-0.9-0.2-1.2,0.2l-4.2,5.9c-0.1,0.1-0.3,0.2-0.3,0.2c-0.1,0-0.2,0-0.4-0.1l-2.7-2.6
	c-0.3-0.3-0.9-0.3-1.2,0c-0.3,0.3-0.3,0.9,0,1.2l2.7,2.6c0.4,0.4,1,0.6,1.5,0.6c0,0,0.1,0,0.1,0c0.6,0,1.2-0.3,1.6-0.8c0,0,0,0,0,0
	l4.3-5.9C-271.9,398.9-272,398.4-272.4,398.1z"/>
</svg>
