<?xml version="1.0" encoding="utf-8"?>
<!-- Generator: Adobe Illustrator 18.1.1, SVG Export Plug-In . SVG Version: 6.00 Build 0)  -->
<svg version="1.1" id="Layer_1" xmlns="http://www.w3.org/2000/svg" xmlns:xlink="http://www.w3.org/1999/xlink" x="0px" y="0px"
	 viewBox="0 0 612 792" enable-background="new 0 0 612 792" xml:space="preserve">
<g>
	<path fill="#14282A" d="M302.5,385.5c40.2,0,75.2-14,104.9-43.7c28-28,43.7-62.9,43.7-104.9c0-40.2-14-75.2-43.7-104.9
		c-28-28-62.9-43.7-104.9-43.7c-40.2,0-75.2,14-104.9,43.7s-43.7,62.9-43.7,104.9c0,40.2,14,75.2,43.7,104.9
		C227.3,369.8,262.3,385.5,302.5,385.5z M223.8,158.2c22.7-22.7,47.2-33.2,78.7-33.2s57.7,10.5,78.7,33.2
		c22.7,22.7,33.2,47.2,33.2,78.7s-10.5,57.7-33.2,78.7c-22.7,22.7-47.2,33.2-78.7,33.2s-57.7-10.5-78.7-33.2
		c-22.7-22.7-33.2-47.2-33.2-78.7C190.6,207.2,201.1,180.9,223.8,158.2z"/>
	<path fill="#14282A" d="M559.5,560.4c0-12.2-1.7-24.5-5.2-38.5c-1.7-14-5.2-26.2-8.7-38.5c-3.5-12.2-8.7-24.5-15.7-36.7
		s-15.7-22.7-24.5-31.5s-21-15.7-35-21c-14-5.2-28-8.7-43.7-8.7c-7,0-12.2,1.7-24.5,10.5c-7,5.2-15.7,10.5-24.5,15.7
		s-19.2,10.5-31.5,14c-12.2,3.5-26.2,7-40.2,7c-12.2,0-26.2-1.7-40.2-7c-14-3.5-24.5-8.7-31.5-14c-8.7-5.2-17.5-10.5-24.5-15.7
		c-12.2-7-17.5-10.5-24.5-10.5c-15.7,0-31.5,3.5-43.7,8.7c-14,5.2-24.5,12.2-35,21c-8.7,8.7-17.5,19.2-24.5,31.5
		c-7,12.2-12.2,24.5-15.7,36.7s-7,24.5-8.7,38.5c-3.5,14-5.2,26.2-5.2,38.5s-1.7,24.5-1.7,36.7c0,31.5,10.5,57.7,29.7,76.9
		c21,19.2,47.2,28,78.7,28h295.5c31.5,0,57.7-8.7,76.9-28c19.2-19.2,29.7-45.5,29.7-76.9C561.3,584.8,561.3,572.6,559.5,560.4z
		 M507.1,647.8C494.8,660,477.4,667,454.6,667H159.1c-22.7,0-40.2-5.2-52.5-19.2c-14-12.2-19.2-29.7-19.2-50.7
		c0-12.2,0-22.7,1.7-33.2c0-10.5,1.7-22.7,5.2-35c1.7-12.2,5.2-24.5,8.7-35c3.5-10.5,7-19.2,12.2-29.7c5.2-8.7,10.5-17.5,17.5-22.7
		c7-5.2,14-10.5,22.7-14c8.7-3.5,17.5-5.2,28-5.2c1.7,0,3.5,1.7,7,3.5c7,5.2,15.7,10.5,24.5,15.7c10.5,7,24.5,12.2,40.2,17.5
		c17.5,5.2,33.2,8.7,50.7,8.7s33.2-3.5,50.7-8.7c15.7-5.2,29.7-10.5,40.2-17.5c8.7-7,17.5-12.2,24.5-15.7c3.5-1.7,5.2-3.5,7-3.5
		c10.5,0,19.2,1.7,28,5.2c8.7,3.5,17.5,8.7,22.7,14c7,7,12.2,14,17.5,22.7s10.5,19.2,12.2,29.7c3.5,10.5,7,22.7,8.7,35
		c1.7,12.2,3.5,24.5,5.2,35l0,0c0,10.5,1.7,22.7,1.7,33.2C524.6,618.1,519.3,635.6,507.1,647.8z"/>
</g>
</svg>
