<?xml version="1.0" encoding="utf-8"?>
<!-- Generator: Adobe Illustrator 18.1.1, SVG Export Plug-In . SVG Version: 6.00 Build 0)  -->
<svg version="1.1" id="Layer_1" xmlns="http://www.w3.org/2000/svg" xmlns:xlink="http://www.w3.org/1999/xlink" x="0px" y="0px"
	 viewBox="-297 386 17 22" enable-background="new -297 386 17 22" xml:space="preserve">
<path fill="#0C282A" d="M-288.6,386c-4.6,0-8.4,3.8-8.4,8.4c0,3,0.9,4.2,5.3,9.9c0.8,1,1.6,2.1,2.6,3.4c0.1,0.2,0.3,0.3,0.5,0.3
	s0.4-0.1,0.5-0.3c1-1.3,1.8-2.4,2.6-3.4c4.4-5.8,5.3-6.9,5.3-9.9C-280.3,389.8-284,386-288.6,386z M-286.6,403.5
	c-0.6,0.8-1.3,1.7-2.1,2.7c-0.8-1-1.5-1.9-2.1-2.7c-4.2-5.6-5-6.6-5-9.1c0-3.9,3.2-7.1,7.1-7.1s7.1,3.2,7.1,7.1
	C-281.6,396.9-282.3,397.9-286.6,403.5z"/>
<path fill="#0C282A" d="M-288.6,389.9c-2.5,0-4.5,2-4.5,4.5c0,2.5,2,4.5,4.5,4.5c2.5,0,4.5-2,4.5-4.5
	C-284.1,391.9-286.2,389.9-288.6,389.9z M-288.6,397.6c-1.8,0-3.2-1.4-3.2-3.2c0-1.8,1.4-3.2,3.2-3.2c1.8,0,3.2,1.4,3.2,3.2
	C-285.4,396.1-286.9,397.6-288.6,397.6z"/>
</svg>
