<?xml version="1.0" encoding="utf-8"?>
<!-- Generator: Adobe Illustrator 18.1.1, SVG Export Plug-In . SVG Version: 6.00 Build 0)  -->
<svg version="1.1" id="Layer_1" xmlns="http://www.w3.org/2000/svg" xmlns:xlink="http://www.w3.org/1999/xlink" x="0px" y="0px"
	 viewBox="-295 389 20 16" enable-background="new -295 389 20 16" xml:space="preserve">
<g>
	<defs>
		<rect id="SVGID_1_" x="-295" y="389" width="20" height="16"/>
	</defs>
	<clipPath id="SVGID_2_">
		<use xlink:href="#SVGID_1_"  overflow="visible"/>
	</clipPath>
	<g clip-path="url(#SVGID_2_)">
		<path fill="#14282A" d="M-285.3,390.5c0.4,0,0.8-0.3,0.8-0.7c0-0.4-0.4-0.7-0.8-0.7c-0.4,0-0.8,0.3-0.8,0.7
			C-286,390.2-285.7,390.5-285.3,390.5z"/>
		<path fill="#14282A" d="M-295,393.9h1.3l2.8,8.9l2.6-8.9h1.3l2.8,8.9l2.9-12.3h1.9l4.4,14.6h-1.5l-3.8-12.3l-3,12.3h-1.8l-2.5-8.7
			l-2.3,8.7h-1.8L-295,393.9z"/>
	</g>
</g>
</svg>
