<svg width="9" height="25" viewBox="0 0 9 25" fill="none" xmlns="http://www.w3.org/2000/svg">
<path d="M6.34326 7.65896V0.404624C6.34326 0.17341 6.15578 0 5.9058 0H3.18726C2.93727 0 2.71854 0.17341 2.71854 0.404624V7.65896C1.03117 8.52601 0 10.1734 0 11.9653V24.5954C0 24.8266 0.187486 25 0.437467 25H8.56184C8.81182 25 8.99931 24.8266 8.99931 24.5954V11.9653C9.03056 10.1734 7.99939 8.55491 6.34326 7.65896ZM5.43708 5.83815H3.62472V2.91908H5.43708V5.83815ZM5.43708 0.83815V2.08092H3.62472V0.83815H5.43708ZM8.12438 24.1908H0.937428V11.9653C0.937428 10.4046 1.87486 8.98844 3.40599 8.2948C3.56223 8.23699 3.65597 8.09249 3.65597 7.91908V6.6763H5.46833V7.91908C5.46833 8.06358 5.56207 8.20809 5.71831 8.2948C7.2182 8.98844 8.18687 10.4046 8.18687 11.9653V24.1908H8.12438Z" fill="white"/>
<path d="M2.40698 13C2.17442 13 2 13.1667 2 13.3889V20.6111C2 20.8333 2.17442 21 2.40698 21H6.59302C6.82558 21 7 20.8333 7 20.6111V13.3889C7 13.1667 6.82558 13 6.59302 13H2.40698ZM6.18605 20.2222H2.81395V13.8056H6.15698V20.2222H6.18605Z" fill="white"/>
</svg>
