<svg width="18" height="18" viewBox="0 0 18 18" fill="none" xmlns="http://www.w3.org/2000/svg">
<path d="M9 0C4.05668 0 0 3.82029 0 8.47266C0 10.7484 0.763207 13.8194 1.85548 15.8906H0.527344C0.235863 15.8906 0 16.1265 0 16.418V17.4727C0 17.7641 0.235863 18 0.527344 18H4.24463C4.63651 18 4.98621 17.7945 5.17985 17.4485C5.36421 17.1168 5.35753 16.729 5.16287 16.4128C3.88723 14.3354 3.19922 11.2978 3.19922 9.52734C3.19922 6.08674 6.56824 4.21875 9 4.21875C11.4318 4.21875 14.8008 6.08674 14.8008 9.52734C14.8008 11.2978 14.1128 14.3354 12.8377 16.4118C12.6425 16.729 12.6358 17.1168 12.8212 17.4495C13.0138 17.7945 13.3635 18 13.7554 18H17.4727C17.7641 18 18 17.7641 18 17.4727V16.418C18 16.1265 17.7641 15.8906 17.4727 15.8906H16.1445C17.2368 13.8194 18 10.7484 18 8.47266C18 3.82029 13.9433 0 9 0ZM4.78125 3.69141C4.49002 3.69141 4.25391 3.4553 4.25391 3.16406C4.25391 2.87283 4.49002 2.63672 4.78125 2.63672C5.07248 2.63672 5.30859 2.87283 5.30859 3.16406C5.30859 3.4553 5.07248 3.69141 4.78125 3.69141ZM9 2.63672C8.70877 2.63672 8.47266 2.40061 8.47266 2.10938C8.47266 1.81814 8.70877 1.58203 9 1.58203C9.29123 1.58203 9.52734 1.81814 9.52734 2.10938C9.52734 2.40061 9.29123 2.63672 9 2.63672ZM13.2188 3.69141C12.9275 3.69141 12.6914 3.4553 12.6914 3.16406C12.6914 2.87283 12.9275 2.63672 13.2188 2.63672C13.51 2.63672 13.7461 2.87283 13.7461 3.16406C13.7461 3.4553 13.51 3.69141 13.2188 3.69141Z" fill="black"/>
</svg>
