<svg width="38" height="38" viewBox="0 0 38 38" fill="none" xmlns="http://www.w3.org/2000/svg">
<path d="M19 0C8.5641 0 0 8.06505 0 17.8867C0 22.691 1.61121 29.1742 3.91712 33.5469H1.11328C0.497934 33.5469 0 34.0448 0 34.6602V36.8867C0 37.5021 0.497934 38 1.11328 38H8.96087C9.78819 38 10.5264 37.5662 10.9352 36.8357C11.3244 36.1355 11.3103 35.3168 10.8994 34.6493C8.20637 30.2636 6.75391 23.851 6.75391 20.1133C6.75391 12.8498 13.8663 8.90625 19 8.90625C24.1337 8.90625 31.2461 12.8498 31.2461 20.1133C31.2461 23.851 29.7936 30.2636 27.1017 34.6471C26.6897 35.3168 26.6756 36.1355 27.0669 36.8378C27.4736 37.5662 28.2117 38 29.0391 38H36.8867C37.5021 38 38 37.5021 38 36.8867V34.6602C38 34.0448 37.5021 33.5469 36.8867 33.5469H34.0829C36.3888 29.1742 38 22.691 38 17.8867C38 8.06505 29.4359 0 19 0ZM10.0938 7.79297C9.47892 7.79297 8.98047 7.29452 8.98047 6.67969C8.98047 6.06486 9.47892 5.56641 10.0938 5.56641C10.7086 5.56641 11.207 6.06486 11.207 6.67969C11.207 7.29452 10.7086 7.79297 10.0938 7.79297ZM19 5.56641C18.3852 5.56641 17.8867 5.06795 17.8867 4.45312C17.8867 3.8383 18.3852 3.33984 19 3.33984C19.6148 3.33984 20.1133 3.8383 20.1133 4.45312C20.1133 5.06795 19.6148 5.56641 19 5.56641ZM27.9062 7.79297C27.2914 7.79297 26.793 7.29452 26.793 6.67969C26.793 6.06486 27.2914 5.56641 27.9062 5.56641C28.5211 5.56641 29.0195 6.06486 29.0195 6.67969C29.0195 7.29452 28.5211 7.79297 27.9062 7.79297Z" fill="black"/>
</svg>
