<svg width="22" height="20" viewBox="0 0 22 20" fill="none" xmlns="http://www.w3.org/2000/svg">
<path d="M18.5624 0H3.43749C1.54206 0 0 1.54206 0 3.43749V12.7187C0 14.6141 1.54206 16.1562 3.43749 16.1562H8.72262C9.19726 16.1562 9.582 15.7715 9.582 15.2968C9.582 14.8222 9.19726 14.4374 8.72262 14.4374H3.43749C2.48977 14.4374 1.71874 13.6664 1.71874 12.7187V6.27861H20.2812V8.38408C20.2812 8.85866 20.6659 9.24345 21.1406 9.24345C21.6152 9.24345 21.9999 8.85866 21.9999 8.38408V3.43749C21.9999 1.54201 20.4579 0 18.5624 0ZM20.2812 4.55987H1.71874V3.43744C1.71874 2.48973 2.48977 1.7187 3.43749 1.7187H18.5624C19.5101 1.7187 20.2812 2.48973 20.2812 3.43744V4.55987Z" fill="white"/>
<path d="M21.6408 11.1204C21.2548 10.8441 20.718 10.933 20.4418 11.3189L16.2059 17.2357C16.0902 17.3698 15.9453 17.3988 15.8676 17.404C15.7876 17.4095 15.6324 17.3991 15.4993 17.2723L12.757 14.6392C12.4146 14.3104 11.8705 14.3215 11.542 14.6639C11.2132 15.0062 11.2242 15.5502 11.5666 15.8789L14.3116 18.5147C14.7227 18.906 15.2715 19.1237 15.8361 19.1237C15.8846 19.1237 15.9332 19.1221 15.9819 19.1189C16.5969 19.0779 17.1712 18.7788 17.5574 18.2983C17.5674 18.2858 17.5769 18.2732 17.5863 18.2602L21.8393 12.3194C22.1156 11.9334 22.0267 11.3966 21.6408 11.1204Z" fill="white"/>
</svg>
