<?xml version="1.0" encoding="utf-8"?>
<!-- Generator: Adobe Illustrator 24.0.0, SVG Export Plug-In . SVG Version: 6.00 Build 0)  -->
<svg version="1.1" id="Layer_1" xmlns="http://www.w3.org/2000/svg" xmlns:xlink="http://www.w3.org/1999/xlink" x="0px" y="0px"
	 viewBox="0 0 35 35" style="enable-background:new 0 0 35 35;" xml:space="preserve">
<style type="text/css">
	.st0{fill:#FFFFFF;}
</style>
<g>
	<path class="st0" d="M17.3,16.9c2.3,0,4.3-0.8,6-2.5c1.6-1.6,2.5-3.6,2.5-6c0-2.3-0.8-4.3-2.5-6c-1.6-1.6-3.6-2.5-6-2.5
		c-2.3,0-4.3,0.8-6,2.5s-2.5,3.6-2.5,6c0,2.3,0.8,4.3,2.5,6C13,16,15,16.9,17.3,16.9z M12.8,3.9c1.3-1.3,2.7-1.9,4.5-1.9
		c1.8,0,3.3,0.6,4.5,1.9c1.3,1.3,1.9,2.7,1.9,4.5c0,1.8-0.6,3.3-1.9,4.5c-1.3,1.3-2.7,1.9-4.5,1.9c-1.8,0-3.3-0.6-4.5-1.9
		c-1.3-1.3-1.9-2.7-1.9-4.5C10.9,6.7,11.5,5.2,12.8,3.9z"/>
	<path class="st0" d="M32,26.9c0-0.7-0.1-1.4-0.3-2.2c-0.1-0.8-0.3-1.5-0.5-2.2c-0.2-0.7-0.5-1.4-0.9-2.1c-0.4-0.7-0.9-1.3-1.4-1.8
		c-0.5-0.5-1.2-0.9-2-1.2c-0.8-0.3-1.6-0.5-2.5-0.5c-0.4,0-0.7,0.1-1.4,0.6c-0.4,0.3-0.9,0.6-1.4,0.9c-0.5,0.3-1.1,0.6-1.8,0.8
		c-0.7,0.2-1.5,0.4-2.3,0.4c-0.7,0-1.5-0.1-2.3-0.4c-0.8-0.2-1.4-0.5-1.8-0.8c-0.5-0.3-1-0.6-1.4-0.9c-0.7-0.4-1-0.6-1.4-0.6
		c-0.9,0-1.8,0.2-2.5,0.5c-0.8,0.3-1.4,0.7-2,1.2c-0.5,0.5-1,1.1-1.4,1.8c-0.4,0.7-0.7,1.4-0.9,2.1c-0.2,0.7-0.4,1.4-0.5,2.2
		C3.1,25.5,3,26.2,3,26.9c0,0.7-0.1,1.4-0.1,2.1c0,1.8,0.6,3.3,1.7,4.4C5.8,34.5,7.3,35,9.1,35h16.9c1.8,0,3.3-0.5,4.4-1.6
		c1.1-1.1,1.7-2.6,1.7-4.4C32.1,28.3,32.1,27.6,32,26.9z M29,31.9c-0.7,0.7-1.7,1.1-3,1.1H9.1c-1.3,0-2.3-0.3-3-1.1
		C5.3,31.2,5,30.2,5,29c0-0.7,0-1.3,0.1-1.9c0-0.6,0.1-1.3,0.3-2c0.1-0.7,0.3-1.4,0.5-2c0.2-0.6,0.4-1.1,0.7-1.7
		c0.3-0.5,0.6-1,1-1.3c0.4-0.3,0.8-0.6,1.3-0.8c0.5-0.2,1-0.3,1.6-0.3c0.1,0,0.2,0.1,0.4,0.2c0.4,0.3,0.9,0.6,1.4,0.9
		c0.6,0.4,1.4,0.7,2.3,1c1,0.3,1.9,0.5,2.9,0.5s1.9-0.2,2.9-0.5c0.9-0.3,1.7-0.6,2.3-1c0.5-0.4,1-0.7,1.4-0.9
		c0.2-0.1,0.3-0.2,0.4-0.2c0.6,0,1.1,0.1,1.6,0.3c0.5,0.2,1,0.5,1.3,0.8c0.4,0.4,0.7,0.8,1,1.3c0.3,0.5,0.6,1.1,0.7,1.7
		c0.2,0.6,0.4,1.3,0.5,2c0.1,0.7,0.2,1.4,0.3,2v0c0,0.6,0.1,1.3,0.1,1.9C30,30.2,29.7,31.2,29,31.9z"/>
</g>
</svg>
