<svg width="26" height="16" viewBox="0 0 26 16" fill="none" xmlns="http://www.w3.org/2000/svg">
<path d="M7.57638 8.24161C9.66495 8.24161 11.3567 6.54908 11.3567 4.45801C11.3567 3.15234 11.8127 1.96006 10.8072 1.28054C10.2044 0.871167 7.5522 0.677734 6.76763 0.677734C5.83549 0.677734 4.62403 1.43729 3.96536 1.99508C3.14411 2.68877 3.79194 3.29991 3.79194 4.45801C3.79194 6.54908 5.48281 8.24161 7.57638 8.24161ZM4.94003 4.08782C5.63372 3.96108 6.10562 4.19037 6.10562 4.19037L7.26789 3.62508C7.26789 3.62508 6.67759 4.47968 7.20952 4.19037C8.3893 3.79183 9.71081 3.95858 10.3853 4.09032C10.4087 4.23789 10.4295 4.3888 10.4295 4.54638C10.4295 6.10302 9.19388 7.36199 7.66142 7.36199C6.13231 7.36199 4.895 6.10302 4.895 4.54638C4.89334 4.3888 4.91585 4.23706 4.94003 4.08782Z" fill="black"/>
<path d="M14.0722 8.85533C13.8621 6.94435 14.7751 5.79126 15.1269 5.4219C15.4521 7.40042 17.1596 8.9187 19.2274 8.9187C21.1867 8.9187 22.8225 7.55466 23.2686 5.72873C23.6029 6.3257 24.1724 7.54549 24.034 8.85533C27.5091 8.82615 25.7966 4.85495 23.3603 4.41889C23.3428 4.21628 23.3261 4.01285 23.2811 3.81775C23.1369 2.5621 22.013 0.0107939 18.7946 0.0891674C16.0166 0.153367 15.4096 2.24277 15.267 3.51676C15.1678 3.83025 15.1061 4.15792 15.0836 4.49643C11.4667 5.12675 11.8653 8.79363 14.0722 8.85533ZM17.273 3.57095C17.273 3.57095 17.6299 3.69268 17.6299 4.85244C18.2427 5.06755 19.3091 3.05069 19.3091 3.05069V4.639C19.9911 4.82326 22.1264 4.5773 22.1264 4.5773L22.2064 4.6465C22.2081 4.68069 22.2164 4.71321 22.2164 4.74822C22.2164 6.39824 20.8757 7.73892 19.2282 7.73892C17.6032 7.73892 16.2809 6.43242 16.245 4.81326C16.8361 4.59815 17.273 3.57095 17.273 3.57095Z" fill="black"/>
<path d="M20.1528 9.46662H18.3994H16.9312L13.7287 13.3236L10.2352 9.03223H5.23518L0 14.7785L1.09806 15.9116L4.84665 12.7124L4.92836 15.2104L10.7022 15.122L10.718 12.8275L13.0775 15.2521L13.5653 15.9116L13.6362 15.8265L13.7154 15.9066L13.9238 15.4989L16.7736 12.2355L16.9579 13.6904L16.3834 14.9678L22.2106 14.8702L21.4368 13.6904L21.5811 11.8995L24.0899 15.2613L25.7557 14.8485L21.7753 9.46662H20.1528Z" fill="black"/>
</svg>
