<svg width="40" height="40" viewBox="0 0 40 40" fill="none" xmlns="http://www.w3.org/2000/svg">
<path d="M19.9999 8.04673C16.0026 8.04673 15.3518 4.14946 17.4006 2.15712L19.1613 0.353213C19.6205 -0.117256 20.3781 -0.118037 20.8381 0.352666L22.6472 2.20376C24.6361 4.20899 23.9689 8.04673 19.9999 8.04673Z" fill="#222919"/>
<path d="M38.8281 34.9219H1.17188C0.524687 34.9219 0 35.2809 0 35.7237V39.1982C0 39.641 0.524687 40 1.17188 40H38.8281C39.4753 40 40 39.641 40 39.1982V35.7237C40 35.2809 39.4753 34.9219 38.8281 34.9219Z" fill="#222919"/>
<path d="M3.32859 22.9214C3.67766 23.2652 4.37883 23.7533 4.88164 23.8195C5.44641 23.8967 6.29727 23.2898 6.67438 22.9184C6.83437 22.7584 8.31328 21.3282 9.99992 21.3282C11.6866 21.3282 13.1655 22.7584 13.3285 22.9215C13.6268 23.2153 14.4327 23.8282 14.9999 23.8282C15.5672 23.8282 16.373 23.2152 16.6744 22.9184C16.8344 22.7584 18.3133 21.3282 19.9999 21.3282C21.6866 21.3282 23.1655 22.7584 23.3285 22.9215C23.6268 23.2153 24.4327 23.8282 24.9999 23.8282C25.5672 23.8282 26.373 23.2152 26.6744 22.9184C26.8344 22.7584 28.3133 21.3282 29.9999 21.3282C31.6866 21.3282 33.1655 22.7584 33.3285 22.9215C33.6903 23.2778 34.4766 23.8282 34.9999 23.8282C35.5209 23.8282 36.304 23.2832 36.6744 22.9184C36.7663 22.8264 37.2945 22.315 38.0468 21.8966V19.8437C38.0468 17.9052 36.4697 16.3281 34.5312 16.3281H5.46875C3.53023 16.3281 1.95312 17.9052 1.95312 19.8437V21.8966C2.70594 22.3155 3.23492 22.8277 3.32859 22.9214Z" fill="#222919"/>
<path d="M23.6719 13.9844V10.625C23.6719 9.97781 23.1472 9.45312 22.5 9.45312H17.5C16.8528 9.45312 16.3281 9.97781 16.3281 10.625V13.9844H23.6719Z" fill="#222919"/>
<path d="M38.0469 32.5781V24.837C37.8864 24.9748 37.6661 25.1505 37.4 25.3294C35.7336 26.4566 34.2789 26.4215 32.7024 25.3965C32.2992 25.1366 31.9113 24.8184 31.6714 24.5786C31.3731 24.2848 30.5672 23.6719 30 23.6719C29.4327 23.6719 28.6269 24.2848 28.3255 24.5817C28.1655 24.7417 26.6866 26.1719 25 26.1719C23.3133 26.1719 21.8343 24.7417 21.6714 24.5786C21.3731 24.2848 20.5672 23.6719 20 23.6719C19.4327 23.6719 18.6269 24.2848 18.3255 24.5817C18.1655 24.7417 16.6866 26.1719 15 26.1719C13.3133 26.1719 11.8343 24.7417 11.6714 24.5786C11.3731 24.2848 10.5672 23.6719 9.99996 23.6719C9.43269 23.6719 8.62691 24.2848 8.3255 24.5817C8.08277 24.8245 7.68996 25.1452 7.28308 25.4061C5.68605 26.4384 4.23183 26.4379 2.59316 25.3248C2.33042 25.1477 2.11261 24.9739 1.953 24.8369V32.5782H38.0469V32.5781Z" fill="#222919"/>
</svg>
