<svg width="17" height="22" viewBox="0 0 17 22" fill="none" xmlns="http://www.w3.org/2000/svg">
<path d="M8.35938 0C3.75002 0 0 3.75002 0 8.35938C0 11.335 0.90517 12.5283 5.25487 18.2624C6.00992 19.2578 6.86575 20.386 7.84495 21.6915C7.9664 21.8534 8.15699 21.9487 8.35942 21.9487C8.56184 21.9487 8.75239 21.8534 8.87384 21.6914C9.8473 20.3929 10.6994 19.269 11.4512 18.2775C15.8114 12.5266 16.7188 11.3298 16.7188 8.35938C16.7188 3.75002 12.9687 0 8.35938 0ZM10.4265 17.5005C9.80898 18.3149 9.12398 19.2184 8.35925 20.235C7.58928 19.2119 6.90038 18.3037 6.27948 17.4852C2.04843 11.9074 1.28606 10.9024 1.28606 8.35938C1.28606 4.45915 4.45915 1.28606 8.35938 1.28606C12.2596 1.28606 15.4327 4.45915 15.4327 8.35938C15.4327 10.8974 14.6683 11.9056 10.4265 17.5005Z" fill="white"/>
<path d="M8.35936 3.85815C5.87739 3.85815 3.85815 5.87739 3.85815 8.35936C3.85815 10.8413 5.87739 12.8606 8.35936 12.8606C10.8413 12.8606 12.8606 10.8413 12.8606 8.35936C12.8606 5.87739 10.8413 3.85815 8.35936 3.85815ZM8.35936 11.5745C6.58653 11.5745 5.14421 10.1322 5.14421 8.35936C5.14421 6.58653 6.58653 5.14421 8.35936 5.14421C10.1322 5.14421 11.5745 6.58653 11.5745 8.35936C11.5745 10.1322 10.1322 11.5745 8.35936 11.5745Z" fill="white"/>
</svg>
