<svg width="22" height="22" viewBox="0 0 22 22" fill="none" xmlns="http://www.w3.org/2000/svg">
<path d="M0.387451 21.3124C0.387451 21.6684 0.67602 21.957 1.03196 21.957H16.1565C16.5124 21.957 16.801 21.6684 16.801 21.3124V19.207H0.387451V21.3124Z" fill="black"/>
<path d="M6.34702 11.3863C3.49236 12.2823 1.36561 14.838 1.10291 17.9177H16.0856C15.8229 14.838 13.6962 12.2823 10.8415 11.3862C11.3391 9.85853 10.1922 8.29297 8.59422 8.29297C6.99428 8.29297 5.85015 9.86076 6.34702 11.3863ZM8.59426 9.58199C9.37901 9.58199 9.89707 10.3989 9.56923 11.1063C8.93611 11.024 8.28605 11.0196 7.61933 11.1063C7.2917 10.3995 7.8092 9.58199 8.59426 9.58199Z" fill="black"/>
<path d="M3.5183 6.9845C3.76437 7.22387 4.16637 7.23182 4.4207 6.98454L7.22354 4.25508C8.21467 3.29068 8.21476 1.7024 7.22337 0.737822C6.32364 -0.137079 4.9217 -0.185847 3.9664 0.591905C3.02074 -0.150656 1.64015 -0.106787 0.743469 0.765149C-0.247701 1.72908 -0.247873 3.31801 0.743254 4.28194L3.5183 6.9845Z" fill="black"/>
<path d="M12.6004 7.33142C12.8483 7.57264 13.2498 7.57694 13.5021 7.33146L15.811 5.08303C16.6735 4.24383 16.6733 2.86192 15.8109 2.02277C15.0378 1.27105 13.8618 1.23264 13.0477 1.84067C11.6257 0.812032 9.66833 1.85717 9.66833 3.5753C9.66833 4.15665 9.89782 4.70002 10.3144 5.10511L12.6004 7.33142Z" fill="black"/>
<path d="M21.3554 5.54297H17.9181C17.5621 5.54297 17.2736 5.83154 17.2736 6.18748V8.29287H21.9999V6.18748C21.9999 5.83154 21.7114 5.54297 21.3554 5.54297Z" fill="black"/>
<path d="M17.2736 13.4061C17.2736 14.4857 18.0016 15.3979 18.9922 15.6792V20.6676H18.6055C18.2496 20.6676 17.961 20.9561 17.961 21.3121C17.961 21.668 18.2496 21.9566 18.6055 21.9566H20.668C21.0239 21.9566 21.3125 21.668 21.3125 21.3121C21.3125 20.9561 21.0239 20.6676 20.668 20.6676H20.2813V15.6792C21.2719 15.3979 21.9999 14.4858 21.9999 13.4061V9.58203H17.2736V13.4061Z" fill="black"/>
</svg>
