<svg width="40" height="40" viewBox="0 0 40 40" fill="none" xmlns="http://www.w3.org/2000/svg">
<path d="M0.704468 38.6718C0.704468 39.3189 1.22914 39.8436 1.8763 39.8436H29.3754C30.0226 39.8436 30.5473 39.3189 30.5473 38.6718V34.8438H0.704468V38.6718Z" fill="black"/>
<path d="M11.54 20.6242C6.34966 22.2533 2.48283 26.9001 2.00519 32.4995H29.2465C28.7689 26.9001 24.902 22.2533 19.7117 20.6241C20.6164 17.8465 18.5312 15 15.6258 15C12.7168 15 10.6365 17.8505 11.54 20.6242ZM15.6258 17.3437C17.0527 17.3437 17.9946 18.829 17.3985 20.1152C16.2474 19.9655 15.0655 19.9575 13.8532 20.1152C13.2576 18.83 14.1985 17.3437 15.6258 17.3437Z" fill="black"/>
<path d="M6.39691 12.621C6.84432 13.0562 7.57523 13.0706 8.03764 12.621L13.1337 7.6584C14.9358 5.90494 14.9359 3.01714 13.1334 1.26337C11.4975 -0.327359 8.94855 -0.416028 7.21165 0.998066C5.49225 -0.352046 2.9821 -0.272283 1.35176 1.31306C-0.450366 3.06566 -0.450679 5.95463 1.35137 7.70722L6.39691 12.621Z" fill="black"/>
<path d="M22.9099 13.2518C23.3607 13.6904 24.0906 13.6982 24.5495 13.2519L28.7474 9.16384C30.3155 7.63803 30.3153 5.12545 28.7472 3.59972C27.3415 2.23297 25.2033 2.16313 23.7233 3.26864C21.1377 1.39839 17.5789 3.29864 17.5789 6.42252C17.5789 7.47952 17.9962 8.46745 18.7536 9.20399L22.9099 13.2518Z" fill="black"/>
<path d="M38.8282 10H32.5784C31.9313 10 31.4066 10.5247 31.4066 11.1718V14.9998H40V11.1718C40 10.5247 39.4754 10 38.8282 10Z" fill="black"/>
<path d="M31.4066 24.2966C31.4066 26.2596 32.7302 27.918 34.5315 28.4295V37.4993H33.8284C33.1812 37.4993 32.6566 38.0239 32.6566 38.6711C32.6566 39.3183 33.1812 39.8429 33.8284 39.8429H37.5783C38.2254 39.8429 38.7501 39.3183 38.7501 38.6711C38.7501 38.0239 38.2254 37.4993 37.5783 37.4993H36.8752V28.4296C38.6764 27.9181 40 26.2596 40 24.2967V17.3438H31.4066V24.2966Z" fill="black"/>
</svg>
