<svg width="16" height="16" viewBox="0 0 16 16" fill="none" xmlns="http://www.w3.org/2000/svg">
<g clip-path="url(#clip0)">
<rect width="16" height="16" fill="#828C70"/>
<path d="M10.2573 6.2247L10.2573 6.22467C10.9127 5.56925 11.2397 4.77979 11.2397 3.8535C11.2397 2.92765 10.9128 2.13807 10.2572 1.48239C10.2572 1.48236 10.2572 1.48233 10.2571 1.48231M10.2573 6.2247L5.16138 6.57834C4.41211 5.8292 4.03223 4.91246 4.03223 3.8535C4.03223 2.79479 4.41211 1.87804 5.16125 1.1289C5.9104 0.379759 6.82703 0 7.88599 0C8.9447 0 9.86145 0.379759 10.6107 1.12878L10.2571 1.48231M10.2573 6.2247C9.60186 6.88019 8.81217 7.20724 7.88599 7.20724C6.96013 7.20724 6.1705 6.88013 5.5149 6.22476M10.2573 6.2247L5.5149 6.22476M10.2571 1.48231C9.60158 0.82701 8.81199 0.5 7.88599 0.5C6.9597 0.5 6.17023 0.827037 5.51481 1.48246C4.85936 2.1379 4.53223 2.9275 4.53223 3.8535C4.53223 4.77976 4.85936 5.56933 5.5149 6.22476M10.2571 1.48231L5.5149 6.22476" stroke="white"/>
<path d="M14.1303 12.3382L14.1302 12.3378C14.1101 12.0468 14.0689 11.7249 14.0073 11.3806L14.1303 12.3382ZM14.1303 12.3382C14.1508 12.6306 14.1613 12.9369 14.1614 13.2483L14.1303 12.3382ZM14.629 12.3032C14.6074 11.9914 14.5637 11.6514 14.4994 11.2922L14.629 12.3032ZM14.629 12.3032C14.6504 12.6079 14.6613 12.9259 14.6614 13.2483L14.629 12.3032ZM13.7745 10.4282L13.7745 10.4281C13.682 10.1391 13.5556 9.85166 13.3982 9.57485C13.2391 9.29494 13.0562 9.05823 12.8572 8.86794L12.8571 8.86786C12.6595 8.67884 12.4115 8.52084 12.1134 8.40269C11.8269 8.28942 11.5014 8.22876 11.1421 8.22876C11.142 8.22876 11.1418 8.22875 11.1416 8.22873C11.1354 8.2282 11.0802 8.22354 10.7889 8.41319C10.7888 8.41326 10.7887 8.41333 10.7886 8.4134L10.5157 7.99438L13.7745 10.4282ZM13.7745 10.4282C13.8671 10.7174 13.9457 11.0377 14.0072 11.3804L13.7745 10.4282ZM5.84133 8.8367L5.841 8.83648C5.59728 8.68075 5.37628 8.53833 5.18422 8.4132L5.18412 8.41313C4.89307 8.22341 4.83777 8.22808 4.83153 8.22861C4.83132 8.22862 4.83116 8.22864 4.83105 8.22864C4.47161 8.22864 4.14615 8.28942 3.85979 8.40285L3.85971 8.40288C3.56202 8.52074 3.31393 8.67867 3.11616 8.86788L5.84133 8.8367ZM5.84133 8.8367C6.09938 9.00131 6.42676 9.14216 6.80007 9.26275L5.84133 8.8367ZM2.57528 9.57467L2.57525 9.57472C2.41797 9.8516 2.2915 10.1389 2.1989 10.4282L2.57528 9.57467ZM2.57528 9.57467C2.73398 9.29523 2.91698 9.05859 3.11606 8.86797L2.57528 9.57467ZM1.84329 12.3381L1.84328 12.3382C1.82288 12.6323 1.8125 12.9385 1.8125 13.2484C1.8125 13.9699 2.0375 14.5069 2.4464 14.8963C2.85526 15.2853 3.40853 15.5001 4.13489 15.5001H11.839C12.5654 15.5001 13.1185 15.2854 13.5275 14.8962L13.5275 14.8962C13.9363 14.5072 14.1613 13.9703 14.1614 13.2485L1.84329 12.3381ZM1.84329 12.3381C1.86346 12.0464 1.9046 11.7243 1.96626 11.3806L1.84329 12.3381ZM7.98657 9.45385C8.38416 9.45385 8.78336 9.38874 9.17273 9.26278L6.80018 9.26278C7.18981 9.38871 7.5889 9.45385 7.98657 9.45385ZM1.96627 11.3805C2.02776 11.0379 2.10634 10.7176 2.19885 10.4283L1.96627 11.3805Z" stroke="white"/>
</g>
<defs>
<clipPath id="clip0">
<rect width="16" height="16" fill="white"/>
</clipPath>
</defs>
</svg>
