<svg width="16" height="16" viewBox="0 0 16 16" fill="none" xmlns="http://www.w3.org/2000/svg">
<g clip-path="url(#clip0)">
<rect width="16" height="16" fill="#F4C151"/>
<path d="M10.2573 6.2247L10.2573 6.22467C10.9127 5.56925 11.2397 4.77979 11.2397 3.8535C11.2397 2.92765 10.9128 2.13807 10.2572 1.48239C10.2572 1.48236 10.2572 1.48233 10.2571 1.48231M10.2573 6.2247L5.16138 6.57834C4.41211 5.8292 4.03223 4.91246 4.03223 3.8535C4.03223 2.79479 4.41211 1.87804 5.16125 1.1289C5.9104 0.379759 6.82703 0 7.88599 0C8.9447 0 9.86145 0.379759 10.6107 1.12878L10.2571 1.48231M10.2573 6.2247C9.60186 6.88019 8.81217 7.20724 7.88599 7.20724C6.96013 7.20724 6.1705 6.88013 5.5149 6.22476M10.2573 6.2247L5.5149 6.22476M10.2571 1.48231C9.60158 0.82701 8.81199 0.5 7.88599 0.5C6.9597 0.5 6.17023 0.827037 5.51481 1.48246C4.85936 2.1379 4.53223 2.9275 4.53223 3.8535C4.53223 4.77976 4.85936 5.56933 5.5149 6.22476M10.2571 1.48231L5.5149 6.22476" stroke="white"/>
<path d="M14.1303 12.3381L14.1302 12.3377C14.1101 12.0467 14.0689 11.7248 14.0073 11.3804L14.1303 12.3381ZM14.1303 12.3381C14.1508 12.6305 14.1613 12.9368 14.1614 13.2481L14.1303 12.3381ZM14.629 12.3031C14.6074 11.9913 14.5637 11.6512 14.4994 11.2921L14.629 12.3031ZM14.629 12.3031C14.6504 12.6078 14.6613 12.9258 14.6614 13.2481L14.629 12.3031ZM13.7745 10.4281L13.7745 10.428C13.682 10.139 13.5556 9.85154 13.3982 9.57473C13.2391 9.29482 13.0562 9.05811 12.8572 8.86782L12.8571 8.86774C12.6595 8.67872 12.4115 8.52071 12.1134 8.40257C11.8269 8.28929 11.5014 8.22864 11.1421 8.22864C11.142 8.22864 11.1418 8.22862 11.1416 8.22861C11.1354 8.22808 11.0802 8.22342 10.7889 8.41307C10.7888 8.41314 10.7887 8.41321 10.7886 8.41328L10.5157 7.99426L13.7745 10.4281ZM13.7745 10.4281C13.8671 10.7173 13.9457 11.0376 14.0072 11.3803L13.7745 10.4281ZM5.84133 8.83657L5.841 8.83636C5.59728 8.68063 5.37628 8.53821 5.18422 8.41307L5.18412 8.41301C4.89307 8.22329 4.83777 8.22796 4.83153 8.22848C4.83132 8.2285 4.83116 8.22852 4.83105 8.22852C4.47161 8.22852 4.14615 8.2893 3.85979 8.40273L3.85971 8.40276C3.56202 8.52061 3.31393 8.67855 3.11616 8.86776L5.84133 8.83657ZM5.84133 8.83657C6.09938 9.00118 6.42676 9.14204 6.80007 9.26262L5.84133 8.83657ZM2.57528 9.57455L2.57525 9.5746C2.41797 9.85148 2.2915 10.1388 2.1989 10.428L2.57528 9.57455ZM2.57528 9.57455C2.73398 9.29511 2.91698 9.05847 3.11606 8.86785L2.57528 9.57455ZM1.84329 12.3379L1.84328 12.3381C1.82288 12.6322 1.8125 12.9383 1.8125 13.2483C1.8125 13.9698 2.0375 14.5068 2.4464 14.8962C2.85526 15.2852 3.40853 15.5 4.13489 15.5H11.839C12.5654 15.5 13.1185 15.2853 13.5275 14.8961L13.5275 14.896C13.9363 14.5071 14.1613 13.9702 14.1614 13.2483L1.84329 12.3379ZM1.84329 12.3379C1.86346 12.0462 1.9046 11.7242 1.96626 11.3804L1.84329 12.3379ZM7.98657 9.45373C8.38416 9.45373 8.78336 9.38862 9.17273 9.26266L6.80018 9.26266C7.18981 9.38859 7.5889 9.45373 7.98657 9.45373ZM1.96627 11.3804C2.02776 11.0378 2.10634 10.7175 2.19885 10.4282L1.96627 11.3804Z" stroke="white"/>
</g>
<defs>
<clipPath id="clip0">
<rect width="16" height="16" fill="white"/>
</clipPath>
</defs>
</svg>
