<svg xmlns="http://www.w3.org/2000/svg" viewBox="0 0 83.38 37.08"><defs><style>.cls-1{fill:#fff;}</style></defs><title>icono-wander</title><g id="Layer_2" data-name="Layer 2"><g id="Layer_1-2" data-name="Layer 1"><polygon class="cls-1" points="83.38 37.08 71.05 37.08 63.95 12.56 59.53 24.77 53.75 24.77 47.03 37.08 43.02 37.08 41.13 9.63 33.07 37.08 28.5 37.08 23.53 13.36 17.16 24.77 0 24.77 0 21.47 14.99 21.47 21.83 9.21 26.3 9.21 30.98 31.61 39.46 2.75 44.23 2.75 46.19 31.29 51.56 21.47 56.96 21.47 61.41 9.21 66.68 9.21 73.79 33.78 83.38 33.78 83.38 37.08"/><path class="cls-1" d="M54,3.32a1.73,1.73,0,0,0,1.79-1.66,1.8,1.8,0,0,0-3.59,0A1.73,1.73,0,0,0,54,3.32"/></g></g></svg>