<svg xmlns="http://www.w3.org/2000/svg" viewBox="0 0 149.17 66.34"><defs><style>.cls-1{fill:#818c70;}</style></defs><title>icono-wander-green</title><g id="Layer_2" data-name="Layer 2"><g id="Layer_1-2" data-name="Layer 1"><polygon class="cls-1" points="149.17 66.34 127.11 66.34 114.41 22.47 106.49 44.31 96.16 44.31 84.13 66.34 76.95 66.34 73.58 17.23 59.17 66.34 50.98 66.34 42.1 23.89 30.7 44.31 0 44.31 0 38.41 26.81 38.41 39.06 16.48 47.05 16.48 55.43 56.55 70.59 4.91 79.13 4.91 82.64 55.98 92.24 38.41 101.91 38.41 109.86 16.48 119.29 16.48 132.01 60.44 149.17 60.44 149.17 66.34"/><path class="cls-1" d="M96.67,5.94a3.09,3.09,0,0,0,3.21-3,3.21,3.21,0,0,0-6.41,0,3.09,3.09,0,0,0,3.2,3"/></g></g></svg>