<svg width="129" height="20" viewBox="0 0 129 20" fill="none" xmlns="http://www.w3.org/2000/svg">
<g clip-path="url(#clip0)">
<path d="M19.8931 0L17.1 13.9074L13.1516 0.308611H10.1684L6.13224 13.9074L3.39762 0H6.10352e-05L3.94844 20H7.51661L11.6015 6.20707L15.6912 20H19.2594L23.1542 0H19.8931Z" fill="#212917"/>
<path d="M33.2786 0L26.4006 20H29.9932L31.2654 16.1672L32.3671 12.892L35.1553 4.45495L37.9484 12.892L39.055 16.1672L40.3272 20H44.0562L37.1734 0H33.2786Z" fill="#212917"/>
<path d="M61.278 0V13.5441L52.9084 0H49.1208V20H52.6305V6.26182L61.1122 20H64.7876V0H61.278Z" fill="#212917"/>
<path d="M85.2754 17.8596C83.9739 19.2434 82.0143 20 79.7769 20H72.1482V0H79.7769C82.0143 0 83.9739 0.761573 85.2754 2.14535C87.2885 4.26083 87.5664 7.22748 87.5664 9.99004C87.5664 12.7526 87.2885 15.7442 85.2754 17.8596ZM82.5359 4.4002C81.8729 3.72325 80.9029 3.27028 79.772 3.27028H75.7066V16.7297H79.772C80.9029 16.7297 81.868 16.2768 82.5359 15.5998C83.9154 14.1911 83.9446 11.8218 83.9446 9.98507C83.9446 8.15331 83.9202 5.81384 82.5359 4.4002Z" fill="#212917"/>
<path d="M93.8204 0V20H107.776V16.6999H97.3886V11.2295H106.528V7.95421H97.3886V3.30015H107.776V0H93.8204Z" fill="#212917"/>
<path d="M125.135 20L121.873 12.444H117.535V20.005H113.943V0H122.205C126.875 0 129 2.99154 129 6.20707C129 8.88502 127.562 11.0055 125.407 11.8218L129 20H125.135ZM122.205 3.19064H117.506V9.16874H122.259C124.277 9.16874 125.437 8.09856 125.437 6.20707C125.437 4.5993 124.223 3.19064 122.205 3.19064Z" fill="#212917"/>
</g>
<defs>
<clipPath id="clip0">
<rect width="129" height="20" fill="white"/>
</clipPath>
</defs>
</svg>
