<svg xmlns="http://www.w3.org/2000/svg" xmlns:xlink="http://www.w3.org/1999/xlink" viewBox="0 0 129 20"><defs><style>.cls-1{fill:none;}.cls-2{clip-path:url(#clip-path);}.cls-3{fill:#fff;}</style><clipPath id="clip-path" transform="translate(0)"><rect class="cls-1" width="129" height="20"/></clipPath></defs><title>logo-wander-white-text</title><g id="Layer_2" data-name="Layer 2"><g id="Layer_1-2" data-name="Layer 1"><g class="cls-2"><path class="cls-3" d="M19.89,0,17.1,13.91l-4-13.6h-3l-4,13.6L3.4,0H0L4,20H7.52L11.6,6.21,15.69,20h3.57L23.15,0Z" transform="translate(0)"/><path class="cls-3" d="M33.28,0,26.4,20H30l1.28-3.83,1.1-3.28,2.79-8.44L38,12.89l1.11,3.28L40.33,20h3.73L37.17,0Z" transform="translate(0)"/><path class="cls-3" d="M61.28,0V13.54L52.91,0H49.12V20h3.51V6.26L61.11,20h3.68V0Z" transform="translate(0)"/><path class="cls-3" d="M85.28,17.86A7.46,7.46,0,0,1,79.78,20H72.15V0h7.63a7.43,7.43,0,0,1,5.5,2.15c2,2.11,2.29,5.08,2.29,7.84S87.29,15.74,85.28,17.86ZM82.54,4.4a3.86,3.86,0,0,0-2.77-1.13H75.71V16.73h4.06a3.86,3.86,0,0,0,2.77-1.13c1.38-1.41,1.4-3.78,1.4-5.61S83.92,5.81,82.54,4.4Z" transform="translate(0)"/><path class="cls-3" d="M93.82,0V20h14V16.7H97.39V11.23h9.14V8H97.39V3.3h10.39V0Z" transform="translate(0)"/><path class="cls-3" d="M125.14,20l-3.27-7.56h-4.33V20h-3.6V0h8.27C126.88,0,129,3,129,6.21a5.76,5.76,0,0,1-3.59,5.61L129,20ZM122.21,3.19h-4.7v6h4.75c2,0,3.18-1.07,3.18-3A3,3,0,0,0,122.21,3.19Z" transform="translate(0)"/></g></g></g></svg>