<svg xmlns="http://www.w3.org/2000/svg" viewBox="0 0 145.25 40.34"><title>logo-wander-black</title><g id="Layer_2" data-name="Layer 2"><g id="Layer_1-2" data-name="Layer 1"><path d="M55.86,37.76v.32c0,1-.16,2.26-1.86,2.26-1.5,0-1.82-1-1.82-2.21V34c0-1.28.57-2.12,1.84-2.12,1.52,0,1.8,1,1.8,2.17v.36H54.58v-.51c0-.55-.12-.87-.56-.87s-.58.31-.58.88v4.35c0,.54.11,1,.59,1s.58-.37.58-1v-.46Z"/><path d="M61.11,38l-.29,2.22H59.56L60.87,32h1.75L64,40.22h-1.3L62.36,38Zm1.1-1.15c-.19-1.42-.37-2.74-.46-3.67h0c0,.67-.28,2.44-.44,3.67Z"/><path d="M67.87,32h1.66c1.41,0,1.94.67,1.94,1.88v.3c0,1.17-.4,1.51-.75,1.66.36.14.9.45.9,1.65v.62c0,1.4-.57,2.13-2,2.13H67.87Zm1.52,3.36c.71,0,.92-.22.92-1V34c0-.69-.24-1-.85-1h-.39v2.32Zm-.32,3.85h.42c.73,0,.91-.32.91-1.13v-.54c0-.81-.2-1.16-1-1.16h-.33Z"/><rect x="75.72" y="31.98" width="1.24" height="8.24"/><path d="M81.36,40.22V32H82.8c.32,1.18,1.3,5.25,1.39,5.7h0c-.06-1-.06-2.18-.06-3.53V32h1.15v8.24H83.9c-.26-1-1.34-5.52-1.43-5.88h0c.06,1,.05,2.12.05,3.61v2.27Z"/><path d="M90.54,37.8v.51c0,.62.18,1,.66,1s.62-.47.62-1c0-.88-.19-1.16-1.06-1.86A2.61,2.61,0,0,1,89.42,34c0-1.09.32-2.18,1.78-2.18s1.73,1.08,1.73,2v.44H91.7v-.41c0-.57-.1-.92-.52-.92s-.52.36-.52.91.11.87.83,1.4c1.21.91,1.58,1.44,1.58,2.82,0,1.16-.4,2.27-1.91,2.27s-1.86-1-1.86-2.05V37.8Z"/><polygon points="22.4 0 19.25 15.55 14.81 0.35 11.45 0.35 6.91 15.55 3.83 0 0 0 4.45 22.36 8.46 22.36 13.06 6.94 17.67 22.36 21.68 22.36 26.07 0 22.4 0"/><polygon points="37.47 0 29.73 22.36 33.77 22.36 35.2 18.07 36.45 14.41 39.59 4.98 42.73 14.41 43.97 18.07 45.4 22.36 49.6 22.36 41.86 0 37.47 0"/><polygon points="69 0 69 15.14 59.57 0 55.31 0 55.31 22.36 59.26 22.36 59.26 7 68.81 22.36 72.95 22.36 72.95 0 69 0"/><path d="M96,20a8.39,8.39,0,0,1-6.19,2.39H81.23V0h8.59A8.36,8.36,0,0,1,96,2.4c2.27,2.36,2.58,5.68,2.58,8.77S98.28,17.6,96,20m-3.08-15a4.32,4.32,0,0,0-3.11-1.26H85.25v15h4.57a4.32,4.32,0,0,0,3.11-1.26c1.56-1.58,1.59-4.22,1.59-6.27s0-4.67-1.59-6.25"/><polygon points="105.64 0 105.64 22.36 121.35 22.36 121.35 18.67 109.65 18.67 109.65 12.55 119.95 12.55 119.95 8.89 109.65 8.89 109.65 3.69 121.35 3.69 121.35 0 105.64 0"/><path d="M140.9,22.36l-3.67-8.45h-4.89v8.45h-4V0h9.3c5.25,0,7.65,3.35,7.65,6.94a6.47,6.47,0,0,1-4,6.28l4,9.14Zm-3.3-18.8h-5.29v6.69h5.35c2.27,0,3.58-1.2,3.58-3.31a3.4,3.4,0,0,0-3.64-3.38"/></g></g></svg>