<svg xmlns="http://www.w3.org/2000/svg" viewBox="0 0 154.86 79"><title>wander-full-black</title><g id="Layer_2" data-name="Layer 2"><g id="Layer_1-2" data-name="Layer 1"><path d="M59.56,76.29v.34c0,1-.17,2.37-2,2.37-1.6,0-1.94-1-1.94-2.32V72.31c0-1.34.61-2.22,2-2.22,1.62,0,1.93,1.07,1.93,2.27v.39H58.2v-.54c0-.58-.14-.92-.61-.92s-.61.32-.61.92v4.58c0,.57.11,1,.63,1s.61-.39.61-1v-.48Z"/><path d="M65.15,76.54l-.31,2.34H63.5l1.4-8.67h1.86l1.45,8.67H66.83l-.34-2.34Zm1.18-1.21c-.2-1.49-.39-2.88-.49-3.86h0c0,.71-.3,2.57-.47,3.86Z"/><path d="M72.37,70.21h1.77c1.49,0,2.06.71,2.06,2v.33c0,1.22-.42,1.58-.8,1.73.39.16,1,.49,1,1.74v.66c0,1.46-.61,2.23-2.11,2.23H72.37ZM74,73.74c.75,0,1-.23,1-1.09v-.34c0-.72-.26-1-.9-1h-.42v2.43Zm-.35,4.05h.45c.78,0,1-.34,1-1.18V76c0-.85-.22-1.22-1.07-1.22h-.35Z"/><rect x="80.74" y="70.21" width="1.32" height="8.66"/><path d="M86.75,78.88V70.21h1.53c.35,1.24,1.38,5.52,1.48,6h0c-.06-1.07-.06-2.29-.06-3.71V70.21h1.22v8.67H89.46c-.28-1.06-1.44-5.81-1.53-6.19h0c.06,1,.06,2.24.06,3.79v2.4Z"/><path d="M96.53,76.33v.53c0,.65.2,1,.71,1s.66-.5.66-1.07c0-.93-.2-1.23-1.13-2a2.75,2.75,0,0,1-1.43-2.48c0-1.15.35-2.29,1.9-2.29s1.84,1.13,1.84,2.07v.46H97.77v-.42c0-.61-.1-1-.55-1s-.56.39-.56,1,.12.92.88,1.48c1.3,1,1.69,1.51,1.69,3,0,1.23-.43,2.39-2,2.39s-2-1-2-2.16v-.51Z"/><polygon points="23.88 36.58 20.53 52.93 15.79 36.94 12.21 36.94 7.36 52.93 4.08 36.58 0 36.58 4.74 60.09 9.02 60.09 13.93 43.88 18.84 60.09 23.12 60.09 27.79 36.58 23.88 36.58"/><polygon points="39.95 36.58 31.69 60.09 36.01 60.09 37.53 55.58 38.86 51.73 42.21 41.82 45.56 51.73 46.88 55.58 48.41 60.09 52.89 60.09 44.63 36.58 39.95 36.58"/><polygon points="73.56 36.58 73.56 52.5 63.51 36.58 58.97 36.58 58.97 60.09 63.18 60.09 63.18 43.94 73.36 60.09 77.78 60.09 77.78 36.58 73.56 36.58"/><path d="M102.37,57.58a9,9,0,0,1-6.6,2.51H86.61V36.58h9.16a9,9,0,0,1,6.6,2.52c2.42,2.49,2.75,6,2.75,9.22s-.33,6.77-2.75,9.26M99.08,41.75a4.65,4.65,0,0,0-3.31-1.32H90.89V56.25h4.88a4.61,4.61,0,0,0,3.31-1.33c1.66-1.66,1.69-4.44,1.69-6.6s0-4.91-1.69-6.57"/><polygon points="112.63 36.58 112.63 60.09 129.38 60.09 129.38 56.21 116.91 56.21 116.91 49.78 127.89 49.78 127.89 45.93 116.91 45.93 116.91 40.46 129.38 40.46 129.38 36.58 112.63 36.58"/><path d="M150.22,60.1l-3.91-8.89H141.1V60.1h-4.31V36.58h9.92c5.6,0,8.15,3.52,8.15,7.3a6.78,6.78,0,0,1-4.31,6.6l4.31,9.62Zm-3.51-19.77h-5.64v7h5.7c2.42,0,3.81-1.26,3.81-3.48a3.59,3.59,0,0,0-3.87-3.55"/><polygon points="101.2 22.5 94.17 22.5 90.13 7.62 87.6 15.03 84.31 15.03 80.47 22.5 78.19 22.5 77.11 5.84 72.52 22.5 69.91 22.5 67.08 8.1 63.44 15.03 53.66 15.03 53.66 13.03 62.2 13.03 66.11 5.59 68.66 5.59 71.33 19.18 76.16 1.67 78.88 1.67 80 18.99 83.06 13.03 86.14 13.03 88.67 5.59 91.68 5.59 95.73 20.5 101.2 20.5 101.2 22.5"/><path d="M84.47,2a1,1,0,0,0,1-1,1,1,0,0,0-2,0,1,1,0,0,0,1,1"/></g></g></svg>