<svg width="80" height="80" viewBox="0 0 80 80" fill="none" xmlns="http://www.w3.org/2000/svg">
<path d="M53.8 72.3H26.2C21.1 72.3 16.9 68.1 16.9 63V16.6C16.9 11.5 21.1 7.3 26.2 7.3H53.9C59 7.3 63.2 11.5 63.2 16.6V63C63.1 68.1 59 72.3 53.8 72.3ZM26.2 8.6C21.8 8.6 18.2 12.2 18.2 16.6V63C18.2 67.4 21.8 71 26.2 71H53.9C58.3 71 61.9 67.4 61.9 63V16.6C61.9 12.2 58.3 8.6 53.9 8.6H26.2V8.6Z" fill="#2D3F53"/>
<path d="M23.1 27.7C22.7 27.7 22.4 27.4 22.4 27V20.5C22.4 20.2 22.6 19.9 22.9 19.8L25.2 19C25.6 18.9 25.9 19.1 26.1 19.4C26.2 19.8 26 20.1 25.7 20.3L23.8 21V27C23.8 27.4 23.5 27.7 23.1 27.7Z" fill="#2D3F53"/>
</svg>
