<svg width="80" height="80" viewBox="0 0 80 80" fill="none" xmlns="http://www.w3.org/2000/svg">
<path d="M54.7999 65H25.2C20.8 65 17.2 60.7 17.2 55.4V38.7H62.7999V55.4C62.7999 60.7 59.1999 65 54.7999 65ZM18.4 39.9V55.4C18.4 60 21.4 63.8 25.2 63.8H54.7999C58.4999 63.8 61.5999 60.1 61.5999 55.4V39.9H18.4Z" fill="#2D3F53"/>
<path d="M63.1 37.6H16.9C16.1 37.6 15.5 37 15.5 36.2V33.4C15.5 32.6 16.1 32 16.9 32H63.1C63.9 32 64.5 32.6 64.5 33.4V36.2C64.5 36.9 63.9 37.6 63.1 37.6ZM16.9 33.2C16.8 33.2 16.7 33.3 16.7 33.4V36.2C16.7 36.3 16.8 36.4 16.9 36.4H63.1C63.2 36.4 63.3 36.3 63.3 36.2V33.4C63.3 33.3 63.2 33.2 63.1 33.2H16.9Z" fill="#2D3F53"/>
<path d="M33 33.1C32.6 33.1 32.2999 32.8 32.2999 32.4V30C32.2999 29.8 32.2 29.7 32 29.7H27.9C27.5 29.7 27.2 29.4 27.2 29C27.2 28.6 27.5 28.3 27.9 28.3H32C33 28.3 33.7999 29.1 33.7999 30.1V32.5C33.7999 32.8 33.4 33.1 33 33.1Z" fill="#2D3F53"/>
<path d="M46.9 33.1C46.5 33.1 46.2 32.8 46.2 32.4V30C46.2 29 47 28.2 48 28.2H52C52.4 28.2 52.7 28.5 52.7 28.9C52.7 29.3 52.4 29.6 52 29.6H48C47.8 29.6 47.7 29.7 47.7 29.9V32.3C47.6 32.8 47.3 33.1 46.9 33.1Z" fill="#2D3F53"/>
<path d="M40.9 33.1H39.4C38.6 33.1 37.9 32.4 37.9 31.6V16.5C37.9 15.7 38.6 15 39.4 15H40.9C41.7 15 42.4 15.7 42.4 16.5V31.6C42.4 32.4 41.8 33.1 40.9 33.1ZM39.5 16.4C39.4 16.4 39.4 16.4 39.4 16.5V31.6C39.4 31.7 39.4 31.7 39.5 31.7H41C41.1 31.7 41.1 31.7 41.1 31.6V16.5C41.1 16.4 41.1 16.4 41 16.4H39.5Z" fill="#2D3F53"/>
<path d="M28 24.6C27.9 24.6 27.9 24.6 27.8 24.6C27.4 24.5 27.2 24.1 27.4 23.7L28.8 19.5C28.9 19.2 29.2 19 29.5 19H41.2C41.6 19 41.9 19.3 41.9 19.7C41.9 20.1 41.6 20.4 41.2 20.4H29.9L28.7 24.1C28.5 24.4 28.3 24.6 28 24.6Z" fill="#2D3F53"/>
</svg>
