<svg width="80" height="80" viewBox="0 0 80 80" fill="none" xmlns="http://www.w3.org/2000/svg">
<path d="M55.5 28.5C54.4 28.5 53.5 29.5 53.5 30.6C53.5 31.7 54.5 32.6 55.6 32.6C56.7 32.6 57.6 31.6 57.6 30.5C57.5 29.4 56.6 28.5 55.5 28.5ZM55.5 31.6C54.9 31.6 54.4 31.1 54.4 30.5C54.4 29.9 54.9 29.4 55.5 29.4C56.1 29.4 56.6 29.9 56.6 30.5C56.6 31.1 56.1 31.6 55.5 31.6Z" fill="#2D3F53"/>
<path d="M69.9 45.7H10.4C10.1 45.7 9.79998 45.5 9.69998 45.1L8.69998 38C8.59998 37.2 8.89998 36.5 9.29998 36C9.79998 35.5 10.5 35.2 11.2 35.2H68.8C69.5 35.2 70.2 35.5 70.7 36C71.2 36.5 71.4 37.2 71.4 37.9L70.6 45.1C70.5 45.4 70.2 45.7 69.9 45.7ZM11 44.4H69.4L70.1 37.8C70.1 37.5 70 37.1 69.8 36.9C69.6 36.6 69.2 36.5 68.9 36.5H11.2C10.8 36.5 10.5 36.6 10.3 36.9C10.1 37.2 9.89998 37.5 9.99998 37.9L11 44.4Z" fill="#2D3F53"/>
<path d="M47.9 36.5C47.8 36.5 47.7 36.5 47.6 36.4C47.3 36.2 47.1 35.8 47.3 35.5L52 26.3C52.8 24.8 54.6 24.2 56.2 25L65.3 29.7C66.8 30.5 67.4 32.3 66.6 33.9L65.6 36C65.4 36.3 65 36.5 64.7 36.3C64.4 36.1 64.2 35.7 64.4 35.4L65.5 33.2C65.9 32.3 65.6 31.3 64.7 30.8L55.6 26.1C54.7 25.7 53.7 26 53.2 26.9L48.5 36.1C48.4 36.3 48.2 36.5 47.9 36.5Z" fill="#2D3F53"/>
<path d="M70.1 61.2H10.3C9.89998 61.2 9.59998 60.9 9.59998 60.5V47.2C9.59998 46.8 9.89998 46.5 10.3 46.5H70.1C70.5 46.5 70.8 46.8 70.8 47.2V60.6C70.7 60.9 70.4 61.2 70.1 61.2ZM10.9 59.9H69.4V47.9H10.9V59.9Z" fill="#2D3F53"/>
<path d="M40.5 51.5C37.4 51.5 35.1 48.2 35 48C34.8 47.7 34.9 47.3 35.2 47C35.5 46.8 35.9 46.9 36.2 47.2C36.2 47.2 38.2 50.2 40.6 50.1C41.9 50.1 43.1 49.1 44.2 47.3C44.4 47 44.8 46.9 45.1 47.1C45.4 47.3 45.5 47.7 45.3 48C43.9 50.3 42.3 51.5 40.5 51.5C40.5 51.5 40.5 51.5 40.5 51.5Z" fill="#2D3F53"/>
<path d="M37.9 19.5H41.1L38 23.6H41.2" fill="white"/>
<path d="M41.2 24.2H38C37.7 24.2 37.5 24.1 37.4 23.8C37.3 23.6 37.3 23.3 37.5 23.1L39.8 20.1H37.9C37.5 20.1 37.2 19.8 37.2 19.4C37.2 19 37.5 18.8 37.9 18.7H41.2C41.4 18.7 41.7 18.8 41.8 19.1C41.9 19.3 41.9 19.6 41.7 19.8L39.4 22.8H41.3C41.7 22.8 42 23.1 42 23.5C41.9 23.9 41.6 24.2 41.2 24.2Z" fill="#2D3F53"/>
<path d="M32 22.4H35.3L32.2 26.5H35.4" fill="white"/>
<path d="M35.4 27.1H32.2C31.9 27.1 31.7 27 31.6 26.7C31.5 26.5 31.5 26.2 31.7 26L34 23H32C31.6 23 31.3 22.7 31.3 22.3C31.3 21.9 31.6 21.7 32 21.6H35.3C35.5 21.6 35.8 21.7 35.9 22C36 22.2 36 22.5 35.8 22.7L33.5 25.7H35.4C35.8 25.7 36.1 26 36.1 26.4C36 26.9 35.7 27.1 35.4 27.1Z" fill="#2D3F53"/>
<path d="M44.1 23.2H47.4L44.2 27.3H47.4" fill="white"/>
<path d="M47.4 27.9H44.2C43.9 27.9 43.7 27.8 43.6 27.5C43.5 27.3 43.5 27 43.7 26.8L46 23.8H44.1C43.7 23.8 43.4 23.5 43.4 23.1C43.4 22.7 43.7 22.4 44.1 22.4H47.4C47.6 22.4 47.9 22.5 48 22.8C48.1 23 48.1 23.3 47.9 23.5L45.6 26.5H47.5C47.9 26.5 48.2 26.8 48.2 27.2C48.1 27.6 47.8 27.9 47.4 27.9Z" fill="#2D3F53"/>
</svg>
