<svg width="80" height="80" viewBox="0 0 80 80" fill="none" xmlns="http://www.w3.org/2000/svg">
<path d="M20.1 64.7C20 64.7 19.9 64.7 19.8 64.7C15.7 64.6 12.4 61.1 12.5 57C12.5 54.8 13.5 52.8 15.1 51.5C16.5 50.4 18.2 49.8 20 49.8C24.1 49.9 27.4 53.4 27.3 57.5C27.3 59.6 26.4 61.5 24.9 62.9C23.6 64.1 21.9 64.7 20.1 64.7ZM19.8 51.2C18.4 51.2 17.1 51.7 16.1 52.5C14.8 53.6 14 55.2 14 57C14 60.3 16.6 63.2 20 63.3C21.5 63.4 23 62.8 24.1 61.8C25.3 60.7 26 59.1 26.1 57.5C26.1 54.2 23.5 51.3 20.1 51.2C19.9 51.2 19.8 51.2 19.8 51.2Z" fill="#2D3F53"/>
<path d="M27 52.7C26.9 52.7 26.8 52.7 26.7 52.7C22.6 52.6 19.3 49.1 19.4 45C19.4 42.8 20.4 40.8 22 39.5C23.4 38.4 25.1 37.8 26.9 37.8C31 37.9 34.3 41.4 34.2 45.5C34.2 47.6 33.3 49.5 31.8 50.9C30.5 52.1 28.8 52.7 27 52.7ZM26.6 39.2C25.2 39.2 23.9 39.7 22.9 40.5C21.6 41.6 20.8 43.2 20.8 45C20.8 48.3 23.4 51.2 26.8 51.3C28.3 51.4 29.8 50.8 30.9 49.8C32.1 48.7 32.8 47.1 32.9 45.5C32.9 42.2 30.3 39.3 26.9 39.2C26.8 39.2 26.7 39.2 26.6 39.2Z" fill="#2D3F53"/>
<path d="M31.3 51.3L30.8 50.8L31.3 50.3L30.8 49.8L57.7 26.7C58.6 25.9 58.9 24.7 58.8 23.2C58.4 20.2 55.7 17.3 52.8 16.7C51.6 16.5 50.5 16.7 49.7 17.4L22.9 40.5L22 39.5L48.9 16.4C50 15.5 51.5 15.1 53.1 15.4C56.6 16 59.8 19.5 60.2 23.1C60.5 25 59.9 26.7 58.7 27.8L31.3 51.3Z" fill="#2D3F53"/>
<path d="M34.2 64.6C34.1 64.6 34 64.6 33.9 64.6C29.8 64.5 26.5 61 26.6 56.9C26.6 54.7 27.6 52.7 29.2 51.4C30.6 50.3 32.3 49.7 34.1 49.7C38.2 49.8 41.5 53.3 41.4 57.4C41.4 59.5 40.5 61.4 39 62.8C37.7 64 36 64.6 34.2 64.6ZM33.8 51.1C32.4 51.1 31.1 51.6 30.1 52.4C28.8 53.5 28 55.1 28 56.9C28 60.2 30.6 63.1 34 63.2C35.5 63.3 37 62.7 38.1 61.7C39.3 60.6 40 59 40.1 57.4C40.1 54.1 37.5 51.2 34.1 51.1C34 51.1 33.9 51.1 33.8 51.1Z" fill="#2D3F53"/>
<path d="M38.5 63.3L38 62.7L38.5 62.3L38.1 61.7L56 46.3L56.9 47.4L38.5 63.3Z" fill="#2D3F53"/>
<path d="M30.1001 52.4L29.2001 51.3L56.1001 28.2C57.2001 27.3 58.7001 26.9 60.3001 27.2C63.8001 27.8 67.0001 31.3 67.4001 34.9C67.7001 36.8 67.1001 38.5 65.9001 39.6L60.9001 43.9L60.0001 42.9L65.0001 38.6C65.9001 37.8 66.2001 36.6 66.1001 35.1C65.7001 32.1 63.0001 29.2 60.1001 28.6C58.9001 28.4 57.8001 28.6 57.0001 29.3L30.1001 52.4Z" fill="#2D3F53"/>
<path d="M35.6 41.7C35.4 41.7 35.2 41.6 35.1 41.5C34.8 41.2 34.9 40.8 35.2 40.5L55.3 23.4C55.6 23.1 56 23.2 56.3 23.5C56.6 23.8 56.5 24.2 56.2 24.5L36.1 41.6C35.9 41.7 35.8 41.7 35.6 41.7Z" fill="#2D3F53"/>
<path d="M38.8 50C38.6 50 38.4 49.9 38.3 49.8C38 49.5 38.1 49.1 38.4 48.8L58.5 31.7C58.8 31.5 59.2 31.5 59.5 31.8C59.8 32.1 59.7 32.5 59.4 32.8L39.2 49.8C39.1 49.9 39 50 38.8 50Z" fill="#2D3F53"/>
<path d="M40.1 54C39.9 54 39.7 53.9 39.6 53.8C39.4 53.5 39.4 53.1 39.7 52.8L45.8 47.6C46.1 47.4 46.5 47.4 46.8 47.7C47 48 47 48.4 46.7 48.7L40.6 53.9C40.4 54 40.2 54 40.1 54Z" fill="#2D3F53"/>
<path d="M31.2001 40C31.0001 40 30.8001 39.9 30.7001 39.8C30.5001 39.5 30.5001 39.1 30.8001 38.8L42.8001 28.6C43.1001 28.4 43.5001 28.4 43.8001 28.7C44.0001 29 44.0001 29.4 43.7001 29.7L31.7001 39.9C31.5001 39.9 31.3001 40 31.2001 40Z" fill="#2D3F53"/>
<path d="M34.6 30.2C34.3 30.2 34 30 33.9 29.7L32.2 23.8C32 23 32.4 22.1 33.2 21.8L35.1 21C35.8 20.7 36.7 21 37.1 21.6L39.1 24.9C39.3 25.2 39.2 25.7 38.9 25.9C38.6 26.1 38.1 26 37.9 25.7L35.9 22.4C35.9 22.3 35.8 22.3 35.7 22.4L33.8 23.2C33.6 23.3 33.6 23.4 33.6 23.5L35.3 29.4C35.4 29.8 35.2 30.2 34.8 30.3C34.7 30.2 34.6 30.2 34.6 30.2Z" fill="#2D3F53"/>
<path d="M57.9 47.9C57.4 47.9 56.9 47.7 56.6 47.2L54.5 44C54.3 43.7 54.4 43.2 54.7 43C55 42.8 55.5 42.9 55.7 43.2L57.8 46.4C57.8 46.5 57.9 46.5 58 46.4L59.8 45.5C60 45.4 60 45.3 60 45.1L58 39.3C57.9 38.9 58.1 38.5 58.4 38.4C58.8 38.3 59.2 38.5 59.3 38.8L61.3 44.6C61.6 45.4 61.2 46.3 60.4 46.7L58.6 47.6C58.4 47.8 58.2 47.9 57.9 47.9Z" fill="#2D3F53"/>
</svg>
