<svg width="80" height="80" viewBox="0 0 80 80" fill="none" xmlns="http://www.w3.org/2000/svg">
<path d="M37.8 55.8H22.6C22.2 55.8 22 55.5 22 55.2V28.4C22 26.1 23.9 24.2 26.2 24.2H34.3C36.6 24.2 38.5 26.1 38.5 28.4V55.2C38.4 55.5 38.1 55.8 37.8 55.8ZM23.3 54.5H37.1V28.4C37.1 26.8 35.8 25.5 34.2 25.5H26.1C24.5 25.5 23.2 26.8 23.2 28.4V54.5H23.3Z" fill="#2D3F53"/>
<path d="M28 29.5C29.4 29.5 29.4 27.3 28 27.3C26.6 27.3 26.6 29.5 28 29.5Z" fill="#2D3F53"/>
<path d="M31.9 29.5C33.3 29.5 33.3 27.3 31.9 27.3C30.4 27.3 30.4 29.5 31.9 29.5Z" fill="#2D3F53"/>
<path d="M30.1 32.1C31.5 32.1 31.5 29.9 30.1 29.9C28.7 29.9 28.7 32.1 30.1 32.1Z" fill="#2D3F53"/>
<path d="M37.6 34.7H22.7C22.3 34.7 22.1 34.4 22.1 34.1C22.1 33.7 22.4 33.5 22.7 33.5H37.6C38 33.5 38.2 33.8 38.2 34.1C38.3 34.4 38 34.7 37.6 34.7Z" fill="#2D3F53"/>
<path d="M57.4 55.8H42.2C41.8 55.8 41.6 55.5 41.6 55.2V28.7C41.6 26.2 43.6 24.2 46.1 24.2H53.5C56 24.2 58 26.2 58 28.7V55.1C58 55.5 57.7 55.8 57.4 55.8ZM42.9 54.5H56.7V28.7C56.7 26.9 55.2 25.5 53.5 25.5H46.1C44.3 25.5 42.9 27 42.9 28.7V54.5Z" fill="#2D3F53"/>
<path d="M47.7 30.4C49.1 30.4 49.1 28.2 47.7 28.2C46.3 28.2 46.3 30.4 47.7 30.4Z" fill="#2D3F53"/>
<path d="M51.6 30.4C53 30.4 53 28.2 51.6 28.2C50.1 28.2 50.1 30.4 51.6 30.4Z" fill="#2D3F53"/>
<path d="M57.2 34.7H42.3C41.9 34.7 41.7 34.4 41.7 34.1C41.7 33.7 42 33.5 42.3 33.5H57.2C57.6 33.5 57.8 33.8 57.8 34.1C57.8 34.4 57.6 34.7 57.2 34.7Z" fill="#2D3F53"/>
</svg>
