<svg width="80" height="80" viewBox="0 0 80 80" fill="none" xmlns="http://www.w3.org/2000/svg">
<path d="M21.8 55.8C21.5 55.8 21.3 55.6 21.3 55.3V26.7C21.3 26.4 21.5 26.2 21.8 26.2C22.1 26.2 22.3 26.4 22.3 26.7V55.2C22.4 55.5 22.1 55.8 21.8 55.8Z" fill="#2D3F53"/>
<path d="M21.8 32.4C21.7 32.4 21.5 32.3 21.4 32.2L17 27.8C16.8 27.6 16.8 27.2 17 27C17.2 26.8 17.6 26.8 17.8 27L21.8 31L25.7 27.1C25.9 26.9 26.3 26.9 26.5 27.1C26.7 27.3 26.7 27.7 26.5 27.9L22.2 32.2C22.1 32.4 22 32.4 21.8 32.4Z" fill="#2D3F53"/>
<path d="M26.1 54.6C26 54.6 25.8 54.5 25.7 54.4L21.7 50.4L17.8 54.3C17.6 54.5 17.2 54.5 17 54.3C16.8 54.1 16.8 53.7 17 53.5L21.3 49.2C21.5 49 21.9 49 22.1 49.2L26.5 53.6C26.7 53.8 26.7 54.2 26.5 54.4C26.4 54.5 26.3 54.6 26.1 54.6Z" fill="#2D3F53"/>
<path d="M9.40001 49C9.20001 49 9.00001 48.9 8.90001 48.7C8.70001 48.4 8.80001 48.1 9.10001 48L33.6 33.3C33.9 33.1 34.2 33.2 34.3 33.5C34.5 33.8 34.4 34.1 34.1 34.2L9.70001 48.9C9.60001 49 9.50001 49 9.40001 49Z" fill="#2D3F53"/>
<path d="M35.3 38.5H35.2L29.3 37C29.2 37 29 36.9 29 36.8C28.9 36.7 28.9 36.5 28.9 36.4L30.4 30.4C30.5 30.1 30.8 29.9 31.1 30C31.4 30.1 31.6 30.4 31.5 30.7L30.1 36L35.5 37.3C35.8 37.4 36 37.7 35.9 38C35.8 38.3 35.6 38.5 35.3 38.5Z" fill="#2D3F53"/>
<path d="M12.6 52.1H12.5C12.2 52 12 51.7 12.1 51.4L13.5 45.9L8.10002 44.6C7.80002 44.5 7.60002 44.2 7.70002 43.9C7.80002 43.6 8.10002 43.4 8.40002 43.5L14.3 45C14.6 45.1 14.8 45.4 14.7 45.7L13.2 51.7C13.1 51.9 12.9 52.1 12.6 52.1Z" fill="#2D3F53"/>
<path d="M34.2 49C34.1 49 34 49 33.9 48.9L9.40001 34.2C9.10001 34 9.10001 33.7 9.20001 33.5C9.40001 33.2 9.70001 33.2 9.90001 33.3L34.4 48C34.7 48.2 34.7 48.5 34.6 48.7C34.5 48.9 34.3 49 34.2 49Z" fill="#2D3F53"/>
<path d="M8.20002 38.5C8.00002 38.5 7.70002 38.3 7.70002 38.1C7.60002 37.8 7.80002 37.5 8.10002 37.4L13.5 36.1L12.1 30.6C12 30.3 12.2 30 12.5 29.9C12.8 29.8 13.1 30 13.2 30.3L14.7 36.3C14.7 36.4 14.7 36.6 14.6 36.7C14.5 36.8 14.4 36.9 14.3 36.9L8.40002 38.4C8.30002 38.5 8.30002 38.5 8.20002 38.5Z" fill="#2D3F53"/>
<path d="M30.9 52.1C30.7 52.1 30.4 51.9 30.4 51.7L28.9 45.7C28.8 45.4 29 45.1 29.3 45L35.2 43.5C35.5 43.4 35.8 43.6 35.9 43.9C36 44.2 35.8 44.5 35.5 44.6L30.1 45.9L31.5 51.4C31.6 51.7 31.4 52 31.1 52.1C31 52.1 31 52.1 30.9 52.1Z" fill="#2D3F53"/>
<path d="M56.9 69.3C48.4 69.3 41.4 62.4 41.4 53.8C41.4 48.5 44.1 43.6 48.6 40.8V19.1C48.6 14.5 52.3 10.8 56.9 10.8C59.1 10.8 61.2 11.7 62.8 13.2C64.4 14.8 65.2 16.9 65.2 19.1V40.8C69.7 43.7 72.4 48.5 72.4 53.8C72.3 62.3 65.4 69.3 56.9 69.3ZM56.9 12C53 12 49.9 15.1 49.9 19V41.1C49.9 41.3 49.8 41.5 49.6 41.7C45.3 44.3 42.8 48.8 42.8 53.8C42.7 61.6 49 68 56.9 68C64.8 68 71 61.6 71 53.8C71 48.8 68.4 44.3 64.2 41.7C64 41.6 63.9 41.4 63.9 41.1V19.1C63.9 17.2 63.2 15.5 61.8 14.1C60.5 12.8 58.7 12 56.9 12Z" fill="#2D3F53"/>
<path d="M64.5 20.8H57.9001C57.5001 20.8 57.3 20.5 57.3 20.2C57.3 19.9 57.6001 19.6 57.9001 19.6H64.5C64.9 19.6 65.1 19.9 65.1 20.2C65.1 20.5 64.8 20.8 64.5 20.8Z" fill="#2D3F53"/>
<path d="M64.5 26.7H57.9001C57.5001 26.7 57.3 26.4 57.3 26.1C57.3 25.7 57.6001 25.5 57.9001 25.5H64.5C64.9 25.5 65.1 25.8 65.1 26.1C65.1 26.4 64.8 26.7 64.5 26.7Z" fill="#2D3F53"/>
<path d="M56.9 61.7C52.5 61.7 49 58.1 49 53.8C49 49.5 52.6 45.9 56.9 45.9C61.2 45.9 64.8 49.5 64.8 53.8C64.8 58.1 61.2 61.7 56.9 61.7ZM56.9 47.1C53.2 47.1 50.3 50.1 50.3 53.7C50.3 57.4 53.3 60.3 56.9 60.3C60.6 60.3 63.5 57.3 63.5 53.7C63.5 50.1 60.5 47.1 56.9 47.1Z" fill="#2D3F53"/>
<path d="M56.9001 47.1C56.5001 47.1 56.3 46.8 56.3 46.5V33.1C56.3 32.7 56.6001 32.5 56.9001 32.5C57.3001 32.5 57.5 32.8 57.5 33.1V46.5C57.5 46.8 57.2001 47.1 56.9001 47.1Z" fill="#2D3F53"/>
</svg>
