<svg width="80" height="80" viewBox="0 0 80 80" fill="none" xmlns="http://www.w3.org/2000/svg">
<path d="M30 39H13.2C12.3 39 11.5 38.2 11.5 37.3V37.2C11.5 36.3 12.3 35.5 13.2 35.5H30V36.7H13.2C12.9 36.7 12.7 36.9 12.7 37.2V37.3C12.7 37.6 12.9 37.8 13.2 37.8H30V39Z" fill="#2D3F53"/>
<path d="M50.6 57.4H13.2C12.3 57.4 11.5 56.6 11.5 55.7V55.6C11.5 54.7 12.3 53.9 13.2 53.9H50.6C51.5 53.9 52.3 54.7 52.3 55.6V55.7C52.3 56.6 51.5 57.4 50.6 57.4ZM13.2 55.1C12.9 55.1 12.7 55.3 12.7 55.6V55.7C12.7 56 12.9 56.2 13.2 56.2H50.6C50.9 56.2 51.1 56 51.1 55.7V55.6C51.1 55.3 50.9 55.1 50.6 55.1H13.2Z" fill="#2D3F53"/>
<path d="M50.6 54.4H13.1C12.5 54.4 12.1 53.9 12.1 53.4C12.1 52.8 12.6 52.4 13.1 52.4H50.6C51.2 52.4 51.6 52.9 51.6 53.4C51.7 54 51.2 54.4 50.6 54.4Z" fill="#2D3F53"/>
<path d="M46.2 53.1H17.6C15.4 53.1 13.6 51.3 13.6 49.1V48.8C13.6 46.6 15.4 44.8 17.6 44.8H46.2C48.4 44.8 50.2 46.6 50.2 48.8V49.1C50.2 51.3 48.4 53.1 46.2 53.1ZM17.6 45.9C16 45.9 14.7 47.2 14.7 48.8V49.1C14.7 50.7 16 52 17.6 52H46.2C47.8 52 49.1 50.7 49.1 49.1V48.8C49.1 47.2 47.8 45.9 46.2 45.9H17.6Z" fill="#2D3F53"/>
<path d="M46.3 45.9H17.5C15.3 45.9 13.5 44.1 13.5 41.9C13.5 39.6 15.3 37.9 17.5 37.9H31.1V39.1H17.5C16 39.1 14.8 40.3 14.8 41.8C14.8 43.4 16 44.6 17.5 44.6H46.3C47.8 44.6 49 43.4 49 41.9L50.2 41.8V41.9C50.3 44.1 48.5 45.9 46.3 45.9Z" fill="#2D3F53"/>
<path d="M18.1999 40.2C18.1999 40.2 16.7999 41.1 17.7999 42.7Z" fill="white"/>
<path d="M17.8 43.2C17.6 43.2 17.5 43.1 17.4 43C16.4 41.4 17.3 40.3 18 39.9C18.2 39.8 18.5 39.8 18.6 40C18.7 40.2 18.7 40.5 18.5 40.6C18.3 40.7 17.5 41.3 18.2 42.4C18.3 42.6 18.3 42.9 18.1 43C18 43.1 17.9 43.2 17.8 43.2Z" fill="#2D3F53"/>
<path d="M59.6001 51.6C59.1001 51.6 58.6001 51.5 58.1001 51.4C56.5001 51 55.3001 50 54.5001 48.6C53.8001 47.4 53.6001 46 53.9001 44.7L40.4001 39C39.7001 40.1 38.5001 41 37.2001 41.4C35.7001 41.8 34.1001 41.7 32.7001 40.8C30.5001 39.5 29.4001 36.9 30.0001 34.5C30.4001 32.7 31.7001 31.2 33.3001 30.5C32.6001 28.8 32.8001 27 33.7001 25.4C35.0001 23.2 37.6001 22.2 40.0001 22.8C41.6001 23.2 42.8001 24.2 43.6001 25.5C44.3001 26.7 44.5001 28.1 44.3001 29.4L58.0001 35.1C58.8001 34 59.9001 33.2 61.3001 32.8C62.8001 32.4 64.4001 32.6 65.8001 33.5C68.0001 34.8 69.0001 37.4 68.4001 39.8C67.9001 41.6 66.7001 43 65.1001 43.7C65.8001 45.4 65.6001 47.3 64.6001 48.9C63.5001 50.6 61.6001 51.6 59.6001 51.6ZM39.8001 37.4L55.5001 44L55.3001 44.5C54.9001 45.7 55.0001 47 55.6001 48C56.2001 49.1 57.2001 49.9 58.4001 50.2C60.3001 50.7 62.4001 49.9 63.4001 48.2C64.3001 46.8 64.3001 45.1 63.5001 43.6L63.2001 43L63.9001 42.8C65.5001 42.4 66.6001 41.1 67.0001 39.5C67.5001 37.6 66.6001 35.5 65.0001 34.5C63.9001 33.8 62.7001 33.7 61.5001 34C60.3001 34.3 59.3001 35.1 58.7001 36.1L58.4001 36.6L42.8001 30.1L42.9001 29.6C43.2001 28.4 43.1001 27.2 42.5001 26.1C41.9001 25 40.9001 24.3 39.6001 24C37.7001 23.5 35.6001 24.4 34.7001 26.1C33.9001 27.5 33.8001 29.2 34.6001 30.6L35.0001 31.3L34.3001 31.5C32.7001 32 31.5001 33.2 31.1001 34.8C30.6001 36.7 31.5001 38.8 33.2001 39.8C34.3001 40.4 35.6001 40.6 36.8001 40.2C38.0001 39.9 39.0001 39 39.5001 37.9L39.8001 37.4Z" fill="#2D3F53"/>
</svg>
