<svg width="80" height="80" viewBox="0 0 80 80" fill="none" xmlns="http://www.w3.org/2000/svg">
<path d="M57.3 72.5H22.7C20.9 72.5 19.4 71 19.4 69.2V10.8C19.4 9 20.9 7.5 22.7 7.5H57.4C59.2 7.5 60.7 9 60.7 10.8V69.2C60.6 71 59.1 72.5 57.3 72.5ZM22.7 8.7C21.6 8.7 20.7 9.6 20.7 10.7V69.1C20.7 70.2 21.6 71.1 22.7 71.1H57.4C58.5 71.1 59.4 70.2 59.4 69.1V10.8C59.4 9.7 58.5 8.8 57.4 8.8H22.7V8.7Z" fill="#2D3F53"/>
<path d="M40.3001 60.5C33.9001 60.5 28.7001 55.3 28.7001 48.9C28.7001 42.5 33.9001 37.3 40.3001 37.3C46.7001 37.3 51.9001 42.5 51.9001 48.9C51.9001 55.3 46.7001 60.5 40.3001 60.5ZM40.3001 38.5C34.6001 38.5 29.9001 43.2 29.9001 48.9C29.9001 54.6 34.6001 59.3 40.3001 59.3C46.0001 59.3 50.7001 54.6 50.7001 48.9C50.7001 43.2 46.0001 38.5 40.3001 38.5Z" fill="#2D3F53"/>
<path d="M40.3001 35.1C33.9001 35.1 28.7001 29.9 28.7001 23.5C28.7001 17.1 33.9001 11.9 40.3001 11.9C46.7001 11.9 51.9001 17.1 51.9001 23.5C51.9001 29.9 46.7001 35.1 40.3001 35.1ZM40.3001 13.1C34.6001 13.1 29.9001 17.8 29.9001 23.5C29.9001 29.2 34.6001 33.9 40.3001 33.9C46.0001 33.9 50.7001 29.2 50.7001 23.5C50.7001 17.8 46.0001 13.1 40.3001 13.1Z" fill="#2D3F53"/>
<path d="M27.2001 68.6H27.1001C26.6001 68.6 26.2001 68.3 26.0001 68L23.6001 65.2C23.3001 64.9 23.2001 64.4 23.2001 64C23.2001 63.5 23.5001 63.1 23.8001 62.9C24.5001 62.3 25.6001 62.4 26.2001 63.1L28.6001 65.9C29.2001 66.6 29.1001 67.7 28.4001 68.3C28.0001 68.5 27.6001 68.6 27.2001 68.6ZM24.9001 63.7C24.8001 63.7 24.7001 63.7 24.6001 63.8C24.5001 63.9 24.5001 64 24.5001 64.1C24.5001 64.2 24.5001 64.3 24.6001 64.4L27.0001 67.2C27.1001 67.3 27.2001 67.3 27.3001 67.3C27.4001 67.3 27.5001 67.3 27.6001 67.2C27.8001 67.1 27.8001 66.8 27.7001 66.6L25.3001 63.8C25.1001 63.8 25.0001 63.7 24.9001 63.7Z" fill="#2D3F53"/>
<path d="M40.3 57.9C35.3 57.9 31.3 53.8 31.3 48.9C31.3 43.9 35.4 39.9 40.3 39.9C45.3 39.9 49.3 44 49.3 48.9C49.3 53.9 45.3 57.9 40.3 57.9ZM40.3 41.1C36 41.1 32.5 44.6 32.5 48.9C32.5 53.2 36 56.7 40.3 56.7C44.6 56.7 48.1 53.2 48.1 48.9C48.1 44.6 44.6 41.1 40.3 41.1Z" fill="#2D3F53"/>
<path d="M40.3 32.5C35.3 32.5 31.3 28.4 31.3 23.5C31.3 18.5 35.4 14.5 40.3 14.5C45.3 14.5 49.3 18.6 49.3 23.5C49.3 28.5 45.3 32.5 40.3 32.5ZM40.3 15.7C36 15.7 32.5 19.2 32.5 23.5C32.5 27.8 36 31.3 40.3 31.3C44.6 31.3 48.1 27.8 48.1 23.5C48.1 19.2 44.6 15.7 40.3 15.7Z" fill="#2D3F53"/>
<path d="M34.7001 68.6H34.6C34.2 68.6 33.7001 68.3 33.5001 68L31.0001 65.2C30.4001 64.5 30.5001 63.4 31.2001 62.8C31.9001 62.2 33 62.3 33.6 63L36.0001 65.8C36.3001 66.1 36.4001 66.6 36.4001 67C36.4001 67.5 36.1 67.9 35.8 68.1C35.4 68.5 35.1001 68.6 34.7001 68.6ZM32.0001 63.8C31.8001 63.9 31.8 64.2 31.9 64.4L34.3 67.2C34.4 67.3 34.5 67.3 34.6 67.3C34.7 67.3 34.8001 67.3 34.9001 67.2C35.0001 67.1 35.0001 67 35.0001 66.9C35.0001 66.8 35.0001 66.7 34.9001 66.6L32.5001 63.8C32.5001 63.7 32.2001 63.6 32.0001 63.8Z" fill="#2D3F53"/>
<path d="M23.4001 68.4C23.7867 68.4 24.1001 68.0866 24.1001 67.7C24.1001 67.3134 23.7867 67 23.4001 67C23.0135 67 22.7001 67.3134 22.7001 67.7C22.7001 68.0866 23.0135 68.4 23.4001 68.4Z" fill="#2D3F53"/>
<path d="M31.2 68.4C31.5866 68.4 31.9 68.0866 31.9 67.7C31.9 67.3134 31.5866 67 31.2 67C30.8134 67 30.5 67.3134 30.5 67.7C30.5 68.0866 30.8134 68.4 31.2 68.4Z" fill="#2D3F53"/>
</svg>
