<svg width="80" height="80" viewBox="0 0 80 80" fill="none" xmlns="http://www.w3.org/2000/svg">
<path d="M46.3 57.9C46.2 57.7 46.1 57.4 46 57.2L39.4 28.8C39.2 28 39.3 27.2 39.8 26.5C40.2 25.8 40.9 25.3 41.7 25.1L62.1 20.3C62.9 20.1 63.7 20.3 64.4 20.7C65.1 21.1 65.6 21.8 65.8 22.6L72.4 51C72.8 52.6 71.8 54.3 70.1 54.7L49.7 59.5C48.9 59.7 48.1 59.5 47.4 59.1C47 58.8 46.6 58.4 46.3 57.9ZM64.4 22.6C64.3 22.3 64 22.1 63.8 21.9C63.4 21.7 62.9 21.6 62.5 21.7L42 26.4C41.6 26.5 41.2 26.8 40.9 27.2C40.7 27.6 40.6 28 40.7 28.5L47.3 56.9C47.4 57.3 47.7 57.7 48.1 58C48.5 58.2 48.9 58.3 49.4 58.2L69.8 53.4C70.7 53.2 71.3 52.3 71.1 51.3L64.5 23C64.5 22.8 64.4 22.7 64.4 22.6Z" fill="#2D3F53"/>
<path d="M65.4176 23.3629L40.1936 29.2396L40.4886 30.5056L65.7126 24.6289L65.4176 23.3629Z" fill="#2D3F53"/>
<path d="M66.215 27.0785L40.991 32.9552L41.2859 34.2212L66.5099 28.3445L66.215 27.0785Z" fill="#2D3F53"/>
<path d="M67.1201 30.7677L41.8961 36.6444L42.1911 37.9105L67.4151 32.0338L67.1201 30.7677Z" fill="#2D3F53"/>
<path d="M67.9143 34.2734L42.6903 40.1501L42.9853 41.4162L68.2093 35.5395L67.9143 34.2734Z" fill="#2D3F53"/>
<path d="M68.809 37.9664L43.585 43.8431L43.8799 45.1092L69.1039 39.2325L68.809 37.9664Z" fill="#2D3F53"/>
<path d="M69.6168 41.6783L44.3928 47.5551L44.6878 48.8211L69.9118 42.9444L69.6168 41.6783Z" fill="#2D3F53"/>
<path d="M70.5185 45.4743L45.3918 51.3283L45.6868 52.5943L70.8134 46.7403L70.5185 45.4743Z" fill="#2D3F53"/>
<path d="M71.3157 49.1899L46.1891 55.0439L46.4841 56.31L71.6107 50.4559L71.3157 49.1899Z" fill="#2D3F53"/>
<path d="M48.6001 24.8L47.8001 21.4C47.7001 21 47.8001 20.7 48.0001 20.4C48.2001 20.1 48.5001 19.9 48.8001 19.8L53.5001 18.7C53.9001 18.6 54.2001 18.7 54.5001 18.9C54.8001 19.1 55.0001 19.4 55.1001 19.7L55.9001 23.1L48.6001 24.8ZM53.8001 20.1L49.1001 21.2L49.6001 23.3L54.3001 22.2L53.8001 20.1Z" fill="#2D3F53"/>
<path d="M56.9 60.5C56.9 60.4 56.8 60.3 56.8 60.2L56 56.9L63.3 55.2L64.1 58.6C64.3 59.3 63.8 60.1 63.1 60.2L58.4 61.3C57.8 61.4 57.2 61.1 56.9 60.5ZM57.6 57.9L58.1 60L62.8 58.9L62.3 56.8L57.6 57.9Z" fill="#2D3F53"/>
<path d="M67.2001 54.7C67.2001 54.7 67.2001 54.6 67.1001 54.5L59.5001 21.8C59.4001 21.4 59.6001 21.1 60.0001 21C60.4001 20.9 60.7001 21.1 60.8001 21.5L68.4001 54.2C68.5001 54.6 68.3001 54.9 67.9001 55C67.6001 55.2 67.3001 55 67.2001 54.7Z" fill="#2D3F53"/>
<path d="M51.2001 58.5C51.2001 58.5 51.2001 58.4 51.1001 58.3L43.5001 25.6C43.4001 25.2 43.6001 24.9 44.0001 24.8C44.4001 24.7 44.7001 24.9 44.8001 25.3L52.5001 58C52.6001 58.4 52.4001 58.7 52.0001 58.8C51.7001 58.9 51.4001 58.7 51.2001 58.5Z" fill="#2D3F53"/>
<path d="M29.6 55.3H29.5L22.3 54C21.9 53.9 21.7 53.6 21.8 53.2C21.9 52.8 22.2 52.6 22.6 52.7L29.8 54C30.2 54.1 30.4 54.4 30.3 54.8C30.2 55.1 29.9 55.3 29.6 55.3Z" fill="#2D3F53"/>
<path d="M9.09995 49.7C8.79995 49.7 8.49995 49.5 8.39995 49.1C8.29995 48.7 8.29995 48.3 8.39995 47.8L8.59995 46.8C8.99995 45 10.7 43.7 12.5 44L23.2 46C23.6 46.1 23.8 46.4 23.7 46.8C23.6 47.2 23.3 47.4 22.9 47.3L12.2 45.4C11.1 45.2 9.99995 46 9.79995 47.2L9.59995 48.2C9.59995 48.5 9.49995 48.7 9.59995 49C9.69995 49.4 9.39995 49.7 9.09995 49.8C9.19995 49.7 9.09995 49.7 9.09995 49.7Z" fill="#2D3F53"/>
<path d="M35.8 56.4C35.6 56.4 35.4 56.4 35.2 56.4C34.8 56.3 34.6 56 34.7 55.6C34.8 55.2 35.1 55 35.5 55.1C36.6 55.3 37.7 54.5 37.9 53.3L38.1 52.3C38.2 51.5 38 50.7 37.4 50.2C37.1 50 37.1 49.5 37.3 49.3C37.5 49 38 49 38.2 49.2C39.2 50 39.6 51.3 39.4 52.6L39.2 53.6C38.9 55.1 37.4 56.4 35.8 56.4Z" fill="#2D3F53"/>
<path d="M11 56C9.7 56 8.5 55.2 7.9 53.9C7.8 53.6 7.9 53.2 8.2 53C8.5 52.9 8.9 53 9.1 53.3C9.5 54.2 10.4 54.7 11.3 54.6L35.5 50.3C36 50.2 36.4 49.9 36.7 49.5C37 49 37.1 48.4 37 47.9L36.9 47C36.7 45.8 35.7 45 34.6 45.2L10.4 49.5C9.6 49.6 8.9 50.4 8.8 51.3C8.8 51.7 8.4 51.9 8.1 51.9C7.7 51.9 7.5 51.5 7.5 51.2C7.7 49.7 8.8 48.5 10.2 48.3L34.4 44C36.2 43.7 37.9 45 38.3 46.9L38.4 47.7C38.6 48.6 38.4 49.5 37.9 50.3C37.4 51.1 36.7 51.6 35.8 51.7L11.5 56C11.4 56 11.2 56 11 56Z" fill="#2D3F53"/>
<path d="M26.4 44.3C26.2 44.3 26.1 44.2 26 44.1C25.8 43.9 25.6999 43.6 25.7999 43.3C25.8999 43 27 40.1 23.7 37.6C23.4 38.5 22.8 39.7 21.2 40.6C21.3 40.9 21.4999 41.4 22.2999 41.7C22.5999 41.8 22.8 42.2 22.6 42.6C22.5 42.9 22.1 43.1 21.7 42.9C19.6 42 19.7999 40.2 19.7999 40.1C19.7999 39.9 20 39.7 20.2 39.6C22.4 38.5 22.5 36.5 22.5 36.4C22.5 36.2 22.5999 35.9 22.7999 35.8C22.9999 35.7 23.3 35.7 23.5 35.8C26.6 37.7 27.3999 40.1 27.2999 41.9C28.8999 40.5 29.7 39.2 29.7 37.8C29.7 36.6 29.2 35.5 28.6 34.8C28.5 35.7 28.2 36.1 28.1 36.2C27.9 36.4 27.4999 36.5 27.2999 36.4C24.4999 34.8 23.8999 30.3 23.7999 27.8C20.7999 30.2 20.5 33.4 20.5 33.4C20.5 33.8 20.1999 34.1 19.7999 34C19.3999 34 19.2 33.7 19.2 33.3C19.2 33.1 19.4 29.5 23 26.7C23.4 26.4 23.9 26.3 24.4 26.5C24.9 26.7 25.2 27.2 25.2 27.7C25.3 29.3 25.5999 33 27.2999 34.7C27.2999 34.4 27.3 33.9 27.2 33.3C27.1 33 27.3 32.7 27.5 32.5C27.7 32.3 28.0999 32.4 28.2999 32.5C28.7999 32.9 31.2 34.9 31.1 37.8C31 40 29.5 42.1 26.7 44C26.7 44.3 26.6 44.3 26.4 44.3Z" fill="#2D3F53"/>
<path d="M21.4 44.6C21.3 44.6 21.3 44.6 21.2 44.6C18 43.6 16.1 42 15.4 39.9C14.4 36.9 16.5 33.8 17.1 32.9C17.3 32.7 17.6 32.5 17.9 32.6C18.2 32.7 18.4 32.9 18.5 33.2C18.6 33.9 19.4 35.2 20 35.9C20.2 36.2 20.2 36.6 19.9 36.8C19.6 37 19.2 37 19 36.7C18.9 36.6 18.2 35.6 17.7 34.6C17 35.8 16.2 37.7 16.8 39.5C17.3 41.2 19 42.4 21.8 43.3C22.2 43.4 22.3 43.8 22.2 44.1C22 44.4 21.7 44.6 21.4 44.6Z" fill="#2D3F53"/>
</svg>
