<svg width="80" height="80" viewBox="0 0 80 80" fill="none" xmlns="http://www.w3.org/2000/svg">
<path d="M7.49995 68.7C7.39995 68.7 7.29995 68.7 7.09995 68.6C6.79995 68.4 6.69995 68 6.89995 67.7L31.7999 27.6C31.9999 27.3 32.4 27.2 32.7 27.4C33 27.6 33.1 28 32.9 28.3L8.09995 68.4C7.89995 68.6 7.69995 68.7 7.49995 68.7Z" fill="#2D3F53"/>
<path d="M28.1 35.2C27.8 35.2 27.5 34.9 27.4 34.6L26.7 28.9C26.7 28.5 26.8999 28.2 27.2999 28.2C27.6999 28.2 28 28.4 28 28.8L28.7 34.5C28.8 34.8 28.6 35.1 28.1 35.2C28.1 35.2 28.2 35.2 28.1 35.2Z" fill="#2D3F53"/>
<path d="M36.5 29.9C35.8 29.9 35.1 29.7 34.5 29.3L30.2 26.6C29.3 26.1 28.7 25.2 28.5 24.2C28.3 23.2 28.4 22.2 29 21.3L34.1 13C35.2 11.2 37.6 10.7 39.4 11.8L43.7 14.5C44.6 15 45.2 15.9 45.4 16.9C45.6 17.9 45.5 18.9 44.9 19.8L39.8 28.1C39.3 29 38.4 29.6 37.4 29.8C37.1 29.9 36.8 29.9 36.5 29.9ZM35.2 28.2C35.8 28.5 36.4 28.7 37.1 28.5C37.7 28.3 38.3 28 38.6 27.4L43.7 19.1C44 18.5 44.2 17.9 44 17.2C43.8 16.6 43.5 16 42.9 15.7L38.6 13C37.4 12.3 35.9 12.6 35.2 13.8L30.1 22.1C29.4 23.3 29.7 24.8 30.9 25.5L35.2 28.2Z" fill="#2D3F53"/>
<path d="M71.3 44.9H30.9C29.9 44.9 29.1 44.1 29.1 43.1V43C29.1 42 29.9 41.2 30.9 41.2H71.3C72.3 41.2 73.1 42 73.1 43V43.1C73.2 44.1 72.3 44.9 71.3 44.9ZM30.9 42.4C30.6 42.4 30.4 42.6 30.4 42.9V43C30.4 43.3 30.6 43.5 30.9 43.5H71.3C71.6 43.5 71.8 43.3 71.8 43V42.9C71.8 42.6 71.6 42.4 71.3 42.4H30.9Z" fill="#2D3F53"/>
<path d="M71.3 64.7H30.9C29.9 64.7 29.1 63.9 29.1 62.9V62.8C29.1 61.8 29.9 61 30.9 61H71.3C72.3 61 73.1 61.8 73.1 62.8V62.9C73.2 63.9 72.3 64.7 71.3 64.7ZM30.9 62.3C30.6 62.3 30.4 62.5 30.4 62.8V62.9C30.4 63.2 30.6 63.4 30.9 63.4H71.3C71.6 63.4 71.8 63.2 71.8 62.9V62.8C71.8 62.5 71.6 62.3 71.3 62.3H30.9Z" fill="#2D3F53"/>
<path d="M71.3999 61.6H30.8999C30.2999 61.6 29.7999 61.1 29.7999 60.5C29.7999 59.9 30.2999 59.4 30.8999 59.4H71.3999C71.9999 59.4 72.4999 59.9 72.4999 60.5C72.4999 61.1 71.9999 61.6 71.3999 61.6Z" fill="#2D3F53"/>
<path d="M66.4999 60.2H35.6999C33.2999 60.2 31.2999 58.2 31.2999 55.8V55.5C31.2999 53.1 33.2999 51.1 35.6999 51.1H66.4999C68.8999 51.1 70.8999 53.1 70.8999 55.5V55.8C70.8999 58.2 68.9999 60.2 66.4999 60.2ZM35.6999 52.3C33.9999 52.3 32.5999 53.7 32.5999 55.4V55.7C32.5999 57.4 33.9999 58.8 35.6999 58.8H66.4999C68.1999 58.8 69.5999 57.4 69.5999 55.7V55.4C69.5999 53.7 68.1999 52.3 66.4999 52.3H35.6999Z" fill="#2D3F53"/>
<path d="M66.6999 52.3H35.5999C33.1999 52.3 31.2999 50.4 31.2999 48C31.2999 45.6 33.1999 43.6 35.5999 43.6H66.6999C69.0999 43.6 70.9999 45.5 70.9999 47.9C70.9999 50.4 68.9999 52.3 66.6999 52.3ZM35.5999 45C33.9999 45 32.5999 46.3 32.5999 48C32.5999 49.7 33.8999 51 35.5999 51H66.6999C68.2999 51 69.6999 49.7 69.6999 48C69.6999 46.3 68.3999 45 66.6999 45H35.5999Z" fill="#2D3F53"/>
<path d="M36.4 46.2C36.4 46.2 34.9 47.2 36 48.9Z" fill="white"/>
<path d="M35.9 49.4C35.7 49.4 35.6 49.3 35.5 49.2C34.4 47.5 35.4 46.3 36.1 45.8C36.3 45.6 36.6 45.7 36.8 46C37 46.2 36.9 46.5 36.7 46.7C36.5 46.8 35.6 47.5 36.4 48.7C36.5 48.9 36.5 49.2 36.2 49.4C36.1 49.4 36 49.4 35.9 49.4Z" fill="#2D3F53"/>
</svg>
