<svg width="80" height="80" viewBox="0 0 80 80" fill="none" xmlns="http://www.w3.org/2000/svg">
<path d="M39.0999 54.6H17.2V55.8H39.0999V54.6Z" fill="#2D3F53"/>
<path d="M8.29998 49.7H7.09998V31.9H45.1V38.8H43.9V33.2H8.29998V49.7Z" fill="#2D3F53"/>
<path d="M44.2 30.6H7.40002V29.9C7.40002 27 9.80002 24.6 12.6 24.6H39.6C42.5 24.6 44.8 27 44.8 29.8V30.5L44.2 30.6ZM8.70002 29.3H43.4C43.1 27.4 41.5 26 39.5 26H12.5C10.7 26 9.00002 27.4 8.70002 29.3Z" fill="#2D3F53"/>
<path d="M44.7 37L44 36C49.3 32.3 60.2 26.2 72.9 26.4C73 26.4 73.1 26.4 73.1 26.3C73.1 26.3 73.2 26.2 73.2 26.1V25.4C73.2 25.3 73.2 25.2 73.1 25.2C73.1 25.2 73 25.1 72.9 25.1C69.4 25.1 56.9 25.9 44.8 33.8L44 32.6C56.4 24.5 69.2 23.8 72.8 23.7C73.2 23.7 73.7 23.9 74 24.2C74.3 24.5 74.5 24.9 74.5 25.4V26C74.5 26.4 74.3 26.8 74 27.2C73.7 27.5 73.3 27.7 72.8 27.7C60.5 27.5 49.9 33.5 44.7 37Z" fill="#2D3F53"/>
<path d="M32.0999 24.7H30.9C30.9 23.7 30.1 23 29.2 23H23.1C22.1 23 21.4 23.8 21.4 24.7H20.2C20.2 23.1 21.5 21.7 23.2 21.7H29.2999C30.7999 21.8 32.0999 23.1 32.0999 24.7Z" fill="#2D3F53"/>
<path d="M44.9 58.7H7.3C6.3 58.7 5.5 57.9 5.5 56.9V56.3C5.5 55.3 6.3 54.5 7.3 54.5H44.9C45.9 54.5 46.7 55.3 46.7 56.3V56.9C46.7 57.9 45.9 58.7 44.9 58.7ZM7.3 55.9C7.1 55.9 6.8 56.1 6.8 56.4V57C6.8 57.2 7 57.5 7.3 57.5H44.9C45.1 57.5 45.4 57.3 45.4 57V56.4C45.4 56.2 45.2 55.9 44.9 55.9H7.3Z" fill="#2D3F53"/>
<path d="M45 53.5H7.39998C6.39998 53.5 5.59998 52.7 5.59998 51.7V51.1C5.59998 50.1 6.39998 49.3 7.39998 49.3H45C46 49.3 46.8 50.1 46.8 51.1V51.7C46.8 52.7 46 53.5 45 53.5ZM7.39998 50.7C7.19998 50.7 6.89998 50.9 6.89998 51.2V51.8C6.89998 52 7.09998 52.3 7.39998 52.3H45C45.2 52.3 45.5 52.1 45.5 51.8V51.2C45.5 51 45.3 50.7 45 50.7H7.39998Z" fill="#2D3F53"/>
<path d="M52.2 51.3H49.3C48.1 51.3 47.1 50.3 47.1 49.1V38.1C47.1 36.8 48.1 35.8 49.4 35.8H59C60.3 35.8 61.3 36.8 61.3 38.1V44H60V38.2C60 37.6 59.5 37.2 59 37.2H49.5C48.9 37.2 48.5 37.7 48.5 38.2V49.2C48.5 49.7 48.9 50.1 49.4 50.1H52.3V51.3H52.2Z" fill="#2D3F53"/>
<path d="M47.6 46.7H45.9C44.3 46.7 43 45.4 43 43.8V40.9C43 39.5 44 38.3 45.3 38L47.6 37.5L47.9 38.8L45.6 39.3C44.9 39.5 44.3 40.1 44.3 40.9V43.8C44.3 44.7 45 45.4 45.9 45.4H47.6V46.7Z" fill="#2D3F53"/>
<path d="M63.5 58.7H53.7C52.5 58.7 51.5 57.7 51.5 56.5V45.5C51.5 44.2 52.5 43.2 53.8 43.2H63.3C64.6 43.2 65.6 44.2 65.6 45.5V56.5C65.7 57.7 64.7 58.7 63.5 58.7ZM53.8 44.5C53.2 44.5 52.8 45 52.8 45.5V56.5C52.8 57 53.2 57.4 53.7 57.4H63.5C64 57.4 64.4 57 64.4 56.5V45.5C64.4 44.9 63.9 44.5 63.4 44.5H53.8Z" fill="#2D3F53"/>
<path d="M66.9 54.1H65.2V52.8H66.9C67.8 52.8 68.5 52.1 68.5 51.2V48.3C68.5 47.5 68 46.9 67.2 46.7L64.9 46.2L65.2 44.9L67.5 45.4C68.9 45.7 69.8 46.9 69.8 48.3V51.2C69.8 52.8 68.5 54.1 66.9 54.1Z" fill="#2D3F53"/>
</svg>
