<svg width="80" height="80" viewBox="0 0 80 80" fill="none" xmlns="http://www.w3.org/2000/svg">
<path d="M57.2001 13.3H21.6C20.6 13.3 19.8 12.5 19.8 11.5V9.3C19.8 8.3 20.6 7.5 21.6 7.5H57.2001C58.2001 7.5 59 8.3 59 9.3V11.6C59 12.5 58.2001 13.3 57.2001 13.3ZM21.6 8.9C21.4 8.9 21.2001 9.1 21.2001 9.3V11.6C21.2001 11.8 21.4 12 21.6 12H57.2001C57.4001 12 57.6 11.8 57.6 11.6V9.3C57.6 9.1 57.4001 8.9 57.2001 8.9H21.6Z" fill="#2D3F53"/>
<path d="M47.7001 38.6H31.4C26.4 38.6 22.3 34.5 22.3 29.5V12H56.8V29.5C56.8 34.5 52.7001 38.6 47.7001 38.6ZM23.7001 13.4V29.5C23.7001 33.7 27.2 37.2 31.4 37.2H47.7001C51.9001 37.2 55.4001 33.7 55.4001 29.5V13.4H23.7001Z" fill="#2D3F53"/>
<path d="M40 52.2C26.3 52.2 19 48.4 19 44.8C19 41.2 26.4 37.4 40 37.4C53.6 37.4 61 41.2 61 44.8C61 48.4 53.7 52.2 40 52.2ZM40 38.8C28.4 38.8 20.3 42 20.3 44.8C20.3 47.6 28.4 50.8 40 50.8C51.6 50.8 59.7 47.6 59.7 44.8C59.6 42 51.6 38.8 40 38.8Z" fill="#2D3F53"/>
<path d="M39.3 55.5C30.7 55.5 24.3 53.2 21.1 51.8C19.7 51.2 18.9 49.8 18.9 48.3V44.8C18.9 44.4 19.2 44.1 19.6 44.1C20 44.1 20.3 44.4 20.3 44.8V48.3C20.3 49.2 20.9 50.1 21.7 50.5C26.8 52.8 40.5 57.4 58.1 50.4C59 50 59.6 49.2 59.6 48.2L59.7 44.7C59.7 44.3 60 44 60.4 44C60.8 44 61.1 44.3 61.1 44.7L61 48.2C61 49.7 60 51.1 58.6 51.7C51.5 54.5 44.9 55.5 39.3 55.5Z" fill="#2D3F53"/>
<path d="M40 66.6C29.2 66.6 20.4 59.7 20.4 51.2C20.4 50.8 20.7 50.5 21.1 50.5C21.5 50.5 21.8 50.8 21.8 51.2C21.8 58.9 30 65.2 40 65.2C50 65.2 58.2 58.9 58.2 51.2C58.2 50.8 58.5 50.5 58.9 50.5C59.3 50.5 59.6 50.8 59.6 51.2C59.6 59.7 50.8 66.6 40 66.6Z" fill="#2D3F53"/>
<path d="M55.6001 72.5H24.6001C24.1001 72.5 23.5001 72.3 23.2001 71.8C22.9001 71.4 22.7001 70.8 22.9001 70.3L25.0001 61C25.1001 60.6 25.5001 60.4 25.8001 60.5C26.2001 60.6 26.4001 61 26.3001 61.3L24.1001 70.6C24.1001 70.8 24.1001 70.9 24.2001 70.9C24.2001 71 24.3001 71 24.5001 71H55.5001C55.7001 71 55.8001 70.9 55.8001 70.9C55.8001 70.8 55.9001 70.7 55.9001 70.6L53.7001 61.2C53.6001 60.8 53.8001 60.5 54.2001 60.4C54.6001 60.3 54.9001 60.5 55.0001 60.9L57.2001 70.3C57.3001 70.8 57.2001 71.4 56.9001 71.8C56.6001 72.3 56.1001 72.5 55.6001 72.5Z" fill="#2D3F53"/>
<path d="M19.7001 20.2C19.6001 20.2 19.6001 20.2 19.5001 20.2C19.1001 20.1 18.9001 19.7 19.1001 19.3L19.7001 17.5C19.8001 17.2 20.1001 17 20.4001 17H25.4001C25.8001 17 26.1001 17.3 26.1001 17.7C26.1001 18.1 25.8001 18.4 25.4001 18.4H20.9001L20.5001 19.7C20.3001 20 20.0001 20.2 19.7001 20.2Z" fill="#2D3F53"/>
</svg>
