<svg width="80" height="80" viewBox="0 0 80 80" fill="none" xmlns="http://www.w3.org/2000/svg">
<path d="M26.9 53.8C26.6 53.8 26.3 53.5 26.3 53.2V29.8C26.3 29.5 26.6 29.2 26.9 29.2C27.2 29.2 27.5 29.5 27.5 29.8V53.2C27.5 53.5 27.2 53.8 26.9 53.8Z" fill="#2D3F53"/>
<path d="M70.6 62.3H9.4C8.3 62.3 7.5 61.4 7.5 60.4V55.2C7.5 54.1 8.4 53.3 9.4 53.3H49.9C50.2 53.3 50.5 53.6 50.5 53.9C50.5 54.2 50.2 54.5 49.9 54.5H9.4C9 54.5 8.8 54.8 8.8 55.1V60.3C8.8 60.7 9.1 60.9 9.4 60.9H70.6C71 60.9 71.2 60.6 71.2 60.3V55.1C71.2 54.7 70.9 54.5 70.6 54.5H54.2C53.9 54.5 53.6 54.2 53.6 53.9C53.6 53.6 53.9 53.3 54.2 53.3H70.6C71.7 53.3 72.5 54.2 72.5 55.2V60.4C72.5 61.5 71.6 62.3 70.6 62.3Z" fill="#2D3F53"/>
<path d="M9.29995 66.6C8.99995 66.6 8.69995 66.3 8.69995 66V61.9C8.69995 61.6 8.99995 61.3 9.29995 61.3C9.59995 61.3 9.89995 61.6 9.89995 61.9V66C9.89995 66.3 9.59995 66.6 9.29995 66.6Z" fill="#2D3F53"/>
<path d="M71.1 66.6C70.8 66.6 70.5 66.3 70.5 66V61.9C70.5 61.6 70.8 61.3 71.1 61.3C71.4 61.3 71.7 61.6 71.7 61.9V66C71.7 66.3 71.4 66.6 71.1 66.6Z" fill="#2D3F53"/>
<path d="M14.7 53.9C14.4 53.9 14.1 53.6 14.1 53.3V14C14.1 13.7 14.4 13.4 14.7 13.4H66C66.3 13.4 66.6 13.7 66.6 14V43.9C66.6 44.2 66.3 44.5 66 44.5C65.7 44.5 65.4 44.2 65.4 43.9V14.7H15.3V53.3C15.3 53.6 15 53.9 14.7 53.9Z" fill="#2D3F53"/>
<path d="M23.8 33.2C23.7 33.2 23.5 33.2 23.4 33.1C23.1 32.9 23 32.5 23.3 32.2L26.3 27.9C26.5 27.6 26.9 27.5 27.2 27.8C27.5 28 27.6 28.4 27.3 28.7L24.3 33C24.2 33.1 24 33.2 23.8 33.2Z" fill="#2D3F53"/>
<path d="M23.8 37.8C23.7 37.8 23.5 37.8 23.4 37.7C23.1 37.5 23 37.1 23.3 36.8L26.3 32.5C26.5 32.2 26.9 32.1 27.2 32.4C27.5 32.6 27.6 33 27.3 33.3L24.3 37.6C24.2 37.7 24 37.8 23.8 37.8Z" fill="#2D3F53"/>
<path d="M23.8 43.6C23.7 43.6 23.5 43.6 23.4 43.5C23.1 43.3 23 42.9 23.3 42.6L26.3 38.3C26.5 38 26.9 37.9 27.2 38.2C27.5 38.4 27.6 38.8 27.3 39.1L24.3 43.4C24.2 43.5 24 43.6 23.8 43.6Z" fill="#2D3F53"/>
<path d="M30.1 33.3C29.9 33.3 29.7 33.2 29.6 33L26.6 28.7C26.4 28.4 26.5 28 26.7 27.8C27 27.6 27.4 27.7 27.6 27.9L30.6 32.2C30.8 32.5 30.7 32.9 30.5 33.1C30.4 33.3 30.2 33.3 30.1 33.3Z" fill="#2D3F53"/>
<path d="M30.1 38C29.9 38 29.7 37.9 29.6 37.7L26.6 33.4C26.4 33.1 26.5 32.7 26.7 32.5C27 32.3 27.4 32.4 27.6 32.6L30.6 36.9C30.8 37.2 30.7 37.6 30.5 37.8C30.4 38 30.2 38 30.1 38Z" fill="#2D3F53"/>
<path d="M30.1 43.8C29.9 43.8 29.7 43.7 29.6 43.5L26.6 39.2C26.4 38.9 26.5 38.5 26.7 38.3C27 38.1 27.4 38.2 27.6 38.4L30.6 42.7C30.8 43 30.7 43.4 30.5 43.6C30.4 43.8 30.2 43.8 30.1 43.8Z" fill="#2D3F53"/>
<path d="M38.4001 53.8C38.1001 53.8 37.8 53.5 37.8 53.2V24.7C37.8 24.4 38.1001 24.1 38.4001 24.1C38.7001 24.1 39 24.4 39 24.7V53.1C39 53.5 38.7001 53.8 38.4001 53.8Z" fill="#2D3F53"/>
<path d="M34.4 29.2C34.3 29.2 34.1 29.2 34 29.1C33.7 28.9 33.7 28.5 33.9 28.2L37.8 23C38 22.7 38.4 22.7 38.7 22.9C39 23.1 39 23.5 38.8 23.8L34.9 29C34.8 29.1 34.6 29.2 34.4 29.2Z" fill="#2D3F53"/>
<path d="M34.4 34.4C34.3 34.4 34.1 34.4 34 34.3C33.7 34.1 33.7 33.7 33.9 33.4L37.8 28.2C38 27.9 38.4 27.9 38.7 28.1C39 28.3 39 28.7 38.8 29L34.9 34.2C34.8 34.3 34.6 34.4 34.4 34.4Z" fill="#2D3F53"/>
<path d="M34.4 41.4C34.3 41.4 34.1 41.4 34 41.3C33.7 41.1 33.7 40.7 33.9 40.4L37.8 35.2C38 34.9 38.4 34.9 38.7 35.1C39 35.3 39 35.7 38.8 36L34.9 41.2C34.8 41.4 34.6 41.4 34.4 41.4Z" fill="#2D3F53"/>
<path d="M42.5 29.4C42.3 29.4 42.1 29.3 42 29.1L38.1 24C37.9 23.7 37.9 23.3 38.2 23.1C38.5 22.9 38.9 22.9 39.1 23.2L43 28.4C43.2 28.7 43.2 29.1 42.9 29.3C42.8 29.4 42.7 29.4 42.5 29.4Z" fill="#2D3F53"/>
<path d="M42.5 34.6C42.3 34.6 42.1 34.5 42 34.3L38.1 29.1C37.9 28.8 37.9 28.4 38.2 28.2C38.5 28 38.9 28 39.1 28.3L43 33.5C43.2 33.8 43.2 34.2 42.9 34.4C42.8 34.5 42.7 34.6 42.5 34.6Z" fill="#2D3F53"/>
<path d="M42.5 41.7C42.3 41.7 42.1 41.6 42 41.4L38.1 36.2C37.9 35.9 37.9 35.5 38.2 35.3C38.5 35.1 38.9 35.1 39.1 35.4L43 40.6C43.2 40.9 43.2 41.3 42.9 41.5C42.8 41.6 42.7 41.7 42.5 41.7Z" fill="#2D3F53"/>
<path d="M53.8 62.3H50C49.7 62.3 49.4 62 49.4 61.7V51.6C49.4 51.3 49.7 51 50 51H53.8C54.1 51 54.4 51.2 54.4 51.5C54.4 51.6 54.4 51.6 54.4 51.7C54.4 52.3 54.4 58 54.4 61.7C54.4 61.9 54.3 62 54.2 62.1C54.1 62.2 53.9 62.3 53.8 62.3ZM50.6 61H53.1C53.1 60.1 53.1 58.3 53.1 56.6C53.1 54.3 53.1 53 53.1 52.2H50.6V61Z" fill="#2D3F53"/>
<path d="M71.3 50.8H56.6C56.3 50.8 56.1 50.6 56 50.3C55.3 48 55.9 46.5 56.6 45.7C57.1 45 57.9 44.5 58.9 44.2C64.6 42.7 68.5 43 70.6 45.1C72.7 47.2 72 50.2 72 50.3C71.8 50.6 71.6 50.8 71.3 50.8ZM57.1 49.5H70.7C70.8 48.7 70.7 47.1 69.6 46C67.9 44.3 64.3 44.1 59.1 45.5C58.4 45.7 57.9 46 57.5 46.5C57 47.3 56.8 48.3 57.1 49.5Z" fill="#2D3F53"/>
</svg>
