<svg width="80" height="80" viewBox="0 0 80 80" fill="none" xmlns="http://www.w3.org/2000/svg">
<path d="M44.4 52.8C44.2 52.8 44.1 52.8 44 52.7L19.6 35.9C19.2 35.7 19.2 35.2 19.4 34.8C19.6 34.4 20.1 34.4 20.5 34.6L44.9 51.4C45.3 51.6 45.3 52.1 45.1 52.5C44.9 52.7 44.7 52.8 44.4 52.8Z" fill="#2D3F53"/>
<path d="M41.9 49.6C41.8 49.6 41.6 49.6 41.5 49.5C41.1 49.3 41 48.8 41.3 48.4C43 45.9 43.7 42.9 43.2 40.1C42.8 37.3 41.3 34.8 39 33.3C36.7 31.8 33.9 31.3 31.1 31.9C28.3 32.6 25.8 34.3 24.1 36.8C23.9 37.2 23.4 37.3 23 37C22.6 36.8 22.5 36.3 22.8 35.9C24.7 33.1 27.5 31.1 30.7 30.4C33.9 29.6 37.2 30.2 39.8 32C42.4 33.8 44.2 36.6 44.7 39.9C45.2 43.2 44.4 46.5 42.5 49.3C42.4 49.5 42.1 49.6 41.9 49.6Z" fill="#2D3F53"/>
<path d="M22.3 47C22.2 47 22 47 21.9 46.9C21.5 46.7 21.4 46.2 21.7 45.8L23.2 43.5C23.4 43.1 23.9 43 24.3 43.3C24.7 43.5 24.8 44 24.5 44.4L23 46.7C22.8 46.9 22.6 47 22.3 47Z" fill="#2D3F53"/>
<path d="M18.5 52.5C18.4 52.5 18.2 52.5 18.1 52.4C17.7 52.2 17.6 51.7 17.9 51.3L19.4 49C19.6 48.6 20.1 48.5 20.5 48.8C20.9 49 21 49.5 20.7 49.9L19.2 52.2C19 52.4 18.8 52.5 18.5 52.5Z" fill="#2D3F53"/>
<path d="M32.6 54.3C32.5 54.3 32.3 54.3 32.2 54.2C31.8 54 31.7 53.5 32 53.1L33.5 50.8C33.7 50.4 34.2 50.3 34.6 50.6C35 50.8 35.1 51.3 34.8 51.7L33.3 54C33.1 54.2 32.9 54.3 32.6 54.3Z" fill="#2D3F53"/>
<path d="M28.9 59.8C28.8 59.8 28.6 59.8 28.5 59.7C28.1 59.5 28 59 28.3 58.6L29.8 56.3C30 55.9 30.5 55.8 30.9 56.1C31.3 56.3 31.4 56.8 31.1 57.2L29.6 59.5C29.4 59.6 29.1 59.8 28.9 59.8Z" fill="#2D3F53"/>
<path d="M27.3 50.5C27.2 50.5 27 50.5 26.9 50.4C26.5 50.2 26.4 49.7 26.7 49.3L28.2 47C28.4 46.6 28.9 46.5 29.3 46.8C29.7 47 29.8 47.5 29.5 47.9L28 50.2C27.8 50.4 27.5 50.5 27.3 50.5Z" fill="#2D3F53"/>
<path d="M23.5 56C23.4 56 23.2 56 23.1 55.9C22.7 55.7 22.6 55.2 22.9 54.8L24.4 52.5C24.6 52.1 25.1 52 25.5 52.3C25.9 52.5 26 53 25.7 53.4L24.2 55.7C24 55.9 23.8 56 23.5 56Z" fill="#2D3F53"/>
<path d="M20 61.3C19.9 61.3 19.7 61.3 19.6 61.2C19.2 61 19.1 60.5 19.4 60.1L20.9 57.8C21.1 57.4 21.6 57.3 22 57.6C22.4 57.8 22.5 58.3 22.2 58.7L20.7 61C20.5 61.1 20.3 61.3 20 61.3Z" fill="#2D3F53"/>
<path d="M40.3 33.2C40.1 33.2 39.9 33.1 39.8 33C39.5 32.7 39.4 32.2 39.7 31.9L45.9 24.4C47.8 22.1 50.6 20.8 53.6 20.8H61.2C61.6 20.8 62 21.1 62 21.6C62 22.1 61.7 22.4 61.2 22.4H53.6C51.1 22.4 48.7 23.5 47.1 25.5L40.9 33C40.7 33.1 40.5 33.2 40.3 33.2Z" fill="#2D3F53"/>
</svg>
