<svg width="80" height="80" viewBox="0 0 80 80" fill="none" xmlns="http://www.w3.org/2000/svg">
<path d="M67.4 35.3C66.7 38.4 67.4 41.3 68.2 44.3C69.1 47.8 68.9 51.2 68 54.7C67.5 56.5 66.6 58.2 65.6 59.8C65 60.9 63.7 62 62.4 62.3C60.4 62.7 59.1 60.2 58.7 58.6C58.2 56.9 58.4 55 58.8 53.3C59.8 49.7 62.2 46.8 64.3 43.9C66.4 41 68.3 37.8 68.8 34.2C69.3 30.7 68.6 26.9 67.4 23.7C66.3 20.9 64.5 18.4 61.7 17.1C59.2 16 56.1 16 53.8 17.8C51.4 19.8 50.7 23.1 51.1 26C51.6 29.8 53.2 33.6 54.4 37.2C55 39 55.7 41 55.6 43C55.5 44.8 54.7 46.7 53.8 48.3C52.9 49.8 51.7 51 50 51C48.5 51 47.1 50.3 46 49.2C43.4 46.6 43.8 42.3 44.3 39C45.4 32.7 48 25.2 43.6 19.5C42.7 18.3 41.4 17.2 39.9 16.8C38.3 16.4 36.6 16.9 35.1 17.4C32.2 18.4 29.5 20.1 27.9 22.8C26.1 25.9 25.6 29.7 25.3 33.2C24.9 37.1 25 41 25.3 44.9C25.4 46.8 25.6 48.8 25.8 50.7C25.9 51.5 27.1 51.5 27 50.7C26.3 42.9 25.6 34.9 27.5 27.3C28 25.5 28.6 23.7 29.8 22.2C30.9 20.9 32.3 20 33.8 19.2C35.3 18.5 37.3 17.7 39 17.8C40.9 17.9 42.3 19.3 43.3 20.9C47.3 27.3 43.3 35 42.9 41.8C42.7 44.8 43.2 48.2 45.6 50.3C47.5 52 50.5 52.9 52.8 51.4C54 50.6 54.8 49.4 55.4 48.1C56.1 46.7 56.7 45.1 56.9 43.5C57.1 41.6 56.6 39.7 56 37.9C55.4 36 54.7 34.1 54.1 32.2C52.9 28.8 51.5 25 52.9 21.4C54.2 18 57.7 16.8 61 18.1C64.2 19.3 66.1 22.5 67 25.7C68.1 29.4 68.5 33.4 67.1 37.1C64.6 43.7 57.8 48.3 57.5 55.8C57.4 58.6 58.4 62.3 61.3 63.3C63.9 64.2 66.2 61.6 67.3 59.6C68.2 58.1 69 56.5 69.4 54.8C69.8 53 70.1 51.2 70.2 49.4C70.4 46.4 69.3 43.6 68.8 40.6C68.5 38.9 68.5 37.2 68.8 35.5C68.7 34.9 67.6 34.6 67.4 35.3Z" fill="#2D3F53"/>
<path d="M27.3 60.2C26.5 60.2 25.8 60 25.1 59.5C24.3 58.9 23.8 58.1 23.7 57.1C23.6 56.1 23.8 55.2 24.4 54.4C25 53.6 25.8 53.1 26.8 53C27.8 52.9 28.7 53.1 29.5 53.7C30.3 54.3 30.8 55.1 30.9 56.1C31 57.1 30.8 58 30.2 58.8C29.6 59.6 28.8 60.1 27.8 60.2C27.7 60.2 27.5 60.2 27.3 60.2ZM27.3 54.1C27.2 54.1 27.1 54.1 26.9 54.1C26.3 54.2 25.7 54.5 25.3 55.1C24.9 55.6 24.8 56.3 24.9 56.9C25 57.6 25.3 58.1 25.9 58.5C26.4 58.9 27.1 59 27.7 58.9C28.4 58.8 28.9 58.5 29.3 57.9C29.7 57.4 29.8 56.7 29.7 56.1C29.5 54.9 28.5 54.1 27.3 54.1Z" fill="#2D3F53"/>
<path d="M24 54.4C23.1 54.4 22.3 53.7 22.2 52.8C22.1 52.3 22.3 51.8 22.6 51.4C22.9 51 23.3 50.8 23.8 50.7L29.1 50C29.6 49.9 30.1 50.1 30.5 50.4C30.9 50.7 31.1 51.1 31.2 51.6C31.3 52.6 30.6 53.5 29.6 53.6L24.3 54.3C24.1 54.4 24.1 54.4 24 54.4ZM29.3 51.2C29.3 51.2 29.2 51.3 29.3 51.2L23.9 51.9C23.7 51.9 23.6 52 23.5 52.1C23.4 52.2 23.3 52.4 23.4 52.6C23.4 53 23.8 53.2 24.1 53.2L29.4 52.5C29.8 52.5 30 52.1 30 51.8C30 51.6 29.9 51.5 29.8 51.4C29.6 51.3 29.4 51.2 29.3 51.2Z" fill="#2D3F53"/>
<path d="M19.7 44.3C19.5 44.2 19.4 44.1 19.3 44C18.7 43.1 17.4 42.8 16.2 43.2C15 43.6 14.2 44.7 14.3 45.8C14.3 46 14.3 46.2 14.2 46.3C13.7 46.9 13.6 47.7 13.9 48.4C14.3 49.6 15.9 50.2 17.3 49.7C17.6 49.6 17.9 49.4 18.1 49.3C18.3 49.2 18.4 49.1 18.6 49.1C18.9 49.1 19.2 49 19.5 48.9C20.9 48.4 21.7 47 21.3 45.8C21.1 45 20.5 44.5 19.7 44.3ZM19.3 48.2C19.1 48.3 18.8 48.3 18.6 48.3C18.4 48.3 18.3 48.3 18.1 48.4C17.9 48.5 17.8 48.5 17.7 48.6C17.5 48.8 17.3 48.9 17 49C15.9 49.4 14.7 49 14.4 48.1C14.2 47.6 14.3 47.1 14.7 46.6C14.9 46.3 15 46 15 45.7C15 44.9 15.6 44.1 16.5 43.7C17.4 43.4 18.4 43.6 18.9 44.3C19.1 44.6 19.4 44.8 19.7 44.8C20.3 45 20.7 45.3 20.8 45.8C21 46.8 20.4 47.8 19.3 48.2Z" fill="#2D3F53"/>
<path d="M16.1999 50C15.7999 50 15.3999 49.9 15.0999 49.8C14.3999 49.5 13.8999 49 13.6999 48.4C13.3999 47.7 13.5999 46.9 14.0999 46.2C14.1999 46.1 14.1999 45.9 14.1999 45.8C14.0999 44.6 14.9999 43.5 16.1999 43.1C17.4999 42.7 18.7999 43 19.4999 44C19.5999 44.1 19.6999 44.2 19.7999 44.2C20.5999 44.4 21.1999 45 21.4999 45.7C21.6999 46.3 21.5999 47.1 21.2999 47.7C20.8999 48.3 20.2999 48.8 19.5999 49.1C19.2999 49.2 18.9999 49.3 18.5999 49.3C18.3999 49.3 18.2999 49.4 18.1999 49.4C17.8999 49.6 17.5999 49.8 17.2999 49.9C16.8999 49.9 16.4999 50 16.1999 50ZM17.2999 43.2C16.9999 43.2 16.5999 43.3 16.2999 43.4C15.1999 43.8 14.4999 44.8 14.4999 45.8C14.4999 46 14.3999 46.3 14.2999 46.4C13.8999 47 13.7999 47.7 13.9999 48.3C14.1999 48.8 14.5999 49.3 15.1999 49.5C15.7999 49.7 16.4999 49.7 17.0999 49.5C17.3999 49.4 17.6999 49.3 17.8999 49.1C18.0999 49 18.2999 48.9 18.4999 48.9C18.7999 48.9 19.0999 48.8 19.3999 48.7C19.9999 48.5 20.5999 48 20.8999 47.5C21.1999 47 21.2999 46.4 21.0999 45.8C20.8999 45.2 20.3999 44.7 19.6999 44.5C19.4999 44.4 19.2999 44.3 19.1999 44.1C18.6999 43.5 17.9999 43.2 17.2999 43.2ZM16.0999 49.4C15.7999 49.4 15.4999 49.4 15.2999 49.3C14.7999 49.1 14.3999 48.7 14.1999 48.2C13.9999 47.7 14.0999 47 14.4999 46.5C14.6999 46.3 14.6999 46 14.6999 45.7C14.5999 44.8 15.2999 43.9 16.2999 43.5C17.2999 43.1 18.3999 43.4 18.8999 44.1C19.0999 44.3 19.2999 44.5 19.5999 44.6C20.1999 44.8 20.6999 45.2 20.8999 45.7C21.0999 46.2 20.9999 46.8 20.6999 47.3C20.3999 47.8 19.8999 48.2 19.2999 48.4C18.9999 48.5 18.6999 48.6 18.4999 48.5C18.3999 48.5 18.1999 48.5 18.0999 48.6C17.9999 48.6 17.8999 48.7 17.6999 48.8C17.4999 49 17.1999 49.1 16.9999 49.2C16.7999 49.3 16.3999 49.4 16.0999 49.4ZM17.1999 43.8C16.8999 43.8 16.6999 43.8 16.3999 43.9C15.4999 44.2 14.9999 44.9 14.9999 45.7C14.9999 46.1 14.8999 46.4 14.6999 46.7C14.3999 47.1 14.2999 47.6 14.4999 48C14.5999 48.4 14.8999 48.7 15.3999 48.8C15.7999 49 16.3999 49 16.8999 48.8C17.0999 48.7 17.2999 48.6 17.4999 48.5C17.6999 48.4 17.7999 48.3 17.9999 48.2C18.1999 48.1 18.2999 48.1 18.4999 48.1C18.6999 48.1 18.8999 48.1 19.1999 48C19.6999 47.8 20.0999 47.5 20.3999 47.1C20.5999 46.7 20.6999 46.3 20.5999 45.9C20.4999 45.5 20.0999 45.2 19.5999 45C19.2999 44.9 18.9999 44.7 18.6999 44.4C18.2999 44 17.7999 43.8 17.1999 43.8Z" fill="#2D3F53"/>
<path d="M13.2 43.8C12.9 42.8 11.9 42.3 11.2 42.6C10.4 42.9 9.99996 43.9 10.4 44.8C10.7 45.8 11.7 46.3 12.4 46C13.2 45.8 13.5 44.8 13.2 43.8ZM12.2 45.5C11.7 45.7 11.2 45.3 10.9 44.7C10.7 44.1 10.9 43.4 11.4 43.2C11.9 43 12.4 43.4 12.7 44C12.8 44.7 12.6 45.3 12.2 45.5Z" fill="#2D3F53"/>
<path d="M11.9 46.3C11.1 46.3 10.4 45.7 10.1 44.9C9.89995 44.4 9.89995 43.9 10.1 43.4C10.3 42.9 10.6 42.6 11.1 42.4C11.5 42.2 12 42.3 12.5 42.6C12.9 42.9 13.3 43.3 13.4 43.8C13.8 44.9 13.3 46 12.4 46.3C12.3 46.3 12.1 46.3 11.9 46.3ZM11.6 42.7C11.5 42.7 11.4 42.7 11.2 42.8C10.9 42.9 10.6 43.2 10.5 43.5C10.4 43.9 10.4 44.3 10.5 44.7C10.8 45.5 11.6 46 12.3 45.8C13 45.6 13.3 44.7 13 43.8C12.9 43.4 12.6 43 12.2 42.8C12 42.8 11.8 42.7 11.6 42.7ZM11.9 45.7C11.7 45.7 11.5 45.6 11.3 45.5C11 45.3 10.8 45 10.7 44.7C10.4 44 10.7 43.2 11.3 43C11.6 42.9 11.9 42.9 12.2 43.1C12.5 43.3 12.7 43.6 12.8 43.9C12.9 44.3 12.9 44.8 12.8 45.1C12.7 45.3 12.5 45.5 12.3 45.6C12.1 45.7 12 45.7 11.9 45.7ZM11.6 43.3C11.5 43.3 11.5 43.3 11.4 43.3C11 43.4 10.9 44 11.1 44.5C11.2 44.8 11.4 45 11.6 45.1C11.8 45.2 12 45.3 12.2 45.2C12.4 45.1 12.5 45 12.5 44.9C12.6 44.7 12.6 44.3 12.5 44C12.4 43.7 12.2 43.5 12 43.4C11.8 43.4 11.7 43.3 11.6 43.3Z" fill="#2D3F53"/>
<path d="M19.7999 39.6C18.9999 39.9 18.5999 40.9 18.9999 41.8C19.2999 42.8 20.2999 43.3 20.9999 43C21.7999 42.7 22.1999 41.7 21.7999 40.8C21.4999 39.8 20.5999 39.3 19.7999 39.6ZM20.7999 42.4C20.2999 42.6 19.7999 42.2 19.4999 41.6C19.1999 41 19.4999 40.3 19.9999 40.1C20.4999 39.9 20.9999 40.3 21.2999 40.9C21.4999 41.6 21.2999 42.3 20.7999 42.4Z" fill="#2D3F53"/>
<path d="M20.5999 43.3C20.2999 43.3 19.9999 43.2 19.6999 43C19.2999 42.7 18.8999 42.3 18.7999 41.8C18.3999 40.7 18.8999 39.6 19.7999 39.3C20.6999 39 21.6999 39.6 22.0999 40.6C22.2999 41.1 22.2999 41.6 22.0999 42.1C21.8999 42.6 21.5999 42.9 21.0999 43.1C20.8999 43.3 20.6999 43.3 20.5999 43.3ZM19.8999 39.7C19.1999 39.9 18.8999 40.8 19.1999 41.7C19.2999 42.1 19.5999 42.5 19.9999 42.7C20.2999 42.9 20.6999 42.9 20.9999 42.8C21.2999 42.7 21.5999 42.4 21.6999 42.1C21.7999 41.7 21.7999 41.3 21.6999 40.9C21.3999 40 20.5999 39.5 19.8999 39.7ZM20.5999 42.7C20.3999 42.7 20.1999 42.6 19.9999 42.5C19.6999 42.3 19.4999 42 19.3999 41.7C19.2999 41.3 19.2999 40.8 19.3999 40.5C19.4999 40.3 19.6999 40.1 19.8999 40C20.1999 39.9 20.4999 39.9 20.7999 40.1C21.0999 40.3 21.2999 40.6 21.3999 40.9C21.6999 41.6 21.3999 42.4 20.7999 42.6C20.7999 42.7 20.6999 42.7 20.5999 42.7ZM20.1999 40.3C20.0999 40.3 20.0999 40.3 19.9999 40.3C19.7999 40.4 19.6999 40.5 19.6999 40.6C19.5999 40.8 19.5999 41.2 19.6999 41.5C19.7999 41.8 19.9999 42 20.1999 42.1C20.3999 42.2 20.5999 42.3 20.7999 42.2C21.1999 42.1 21.2999 41.5 21.0999 41C20.9999 40.7 20.7999 40.5 20.5999 40.4C20.4999 40.3 20.3999 40.3 20.1999 40.3Z" fill="#2D3F53"/>
<path d="M17.4 40.7C18.2 40.4 18.6 39.4 18.2 38.5C17.9 37.5 16.9 37 16.2 37.3C15.4 37.6 15 38.6 15.4 39.5C15.7 40.4 16.7 41 17.4 40.7ZM16.4 37.8C16.9 37.6 17.4 38 17.7 38.6C17.9 39.2 17.7 39.9 17.2 40.1C16.7 40.3 16.2 39.9 15.9 39.3C15.7 38.6 16 38 16.4 37.8Z" fill="#2D3F53"/>
<path d="M16.9999 41C16.1999 41 15.4999 40.4 15.1999 39.6C14.9999 39.1 14.9999 38.6 15.1999 38.1C15.3999 37.6 15.6999 37.3 16.1999 37.1C16.5999 36.9 17.0999 37 17.5999 37.3C17.9999 37.6 18.3999 38 18.4999 38.5C18.8999 39.6 18.3999 40.7 17.4999 41C17.3999 40.9 17.1999 41 16.9999 41ZM16.6999 37.4C16.5999 37.4 16.4999 37.4 16.2999 37.5C15.9999 37.6 15.6999 37.9 15.5999 38.2C15.4999 38.6 15.4999 39 15.5999 39.4C15.8999 40.2 16.6999 40.7 17.3999 40.5C18.0999 40.3 18.3999 39.4 18.0999 38.5C17.9999 38.1 17.6999 37.7 17.2999 37.5C17.0999 37.4 16.8999 37.4 16.6999 37.4ZM16.9999 40.4C16.7999 40.4 16.5999 40.3 16.3999 40.2C16.0999 40 15.8999 39.7 15.7999 39.4C15.4999 38.6 15.7999 37.9 16.3999 37.7C16.6999 37.6 16.9999 37.6 17.2999 37.8C17.5999 38 17.7999 38.3 17.8999 38.6C17.9999 39 17.9999 39.5 17.8999 39.8C17.7999 40 17.5999 40.2 17.3999 40.3C17.1999 40.3 17.0999 40.4 16.9999 40.4ZM16.6999 38C16.5999 38 16.5999 38 16.4999 38C16.0999 38.1 15.9999 38.7 16.1999 39.2C16.2999 39.5 16.4999 39.7 16.6999 39.8C16.8999 39.9 17.0999 40 17.2999 39.9C17.4999 39.8 17.5999 39.7 17.5999 39.6C17.6999 39.4 17.6999 39 17.5999 38.7C17.4999 38.4 17.2999 38.2 17.0999 38.1C16.8999 38 16.7999 38 16.6999 38Z" fill="#2D3F53"/>
<path d="M13.7 42C14.5 41.7 14.9 40.7 14.5 39.8C14.2 38.8 13.2 38.3 12.5 38.6C11.7 38.9 11.3 39.9 11.7 40.8C12 41.8 12.9 42.3 13.7 42ZM12.7 39.1C13.2 38.9 13.7 39.3 14 39.9C14.2 40.5 14 41.2 13.5 41.4C13 41.6 12.5 41.2 12.2 40.6C12 40 12.2 39.3 12.7 39.1Z" fill="#2D3F53"/>
<path d="M13.3 42.3C12.5 42.3 11.8 41.7 11.5 40.9C11.3 40.4 11.3 39.9 11.5 39.4C11.7 38.9 12 38.6 12.5 38.4C12.9 38.2 13.4 38.3 13.9 38.6C14.3 38.9 14.7 39.3 14.8 39.8C15.2 40.9 14.7 42 13.8 42.3C13.6 42.3 13.4 42.3 13.3 42.3ZM12.9 38.7C12.8 38.7 12.7 38.7 12.5 38.8C12.2 38.9 11.9 39.2 11.8 39.5C11.7 39.9 11.7 40.3 11.8 40.7C12.1 41.5 12.9 42 13.6 41.8C14.3 41.6 14.6 40.7 14.3 39.8C14.2 39.4 13.9 39 13.5 38.8C13.4 38.8 13.1 38.7 12.9 38.7ZM13.3 41.7C13.1 41.7 12.9 41.6 12.7 41.5C12.4 41.3 12.2 41 12.1 40.7C11.8 39.9 12.1 39.2 12.7 39C13.3 38.8 14 39.2 14.2 40C14.3 40.4 14.3 40.9 14.2 41.2C14.1 41.4 13.9 41.6 13.7 41.7C13.5 41.7 13.4 41.7 13.3 41.7ZM12.9 39.3C12.8 39.3 12.8 39.3 12.7 39.3C12.3 39.4 12.2 40 12.4 40.5C12.5 40.8 12.7 41 12.9 41.1C13.1 41.2 13.3 41.3 13.5 41.2C13.7 41.1 13.8 41 13.8 40.9C13.9 40.7 13.9 40.3 13.8 40C13.6 39.6 13.2 39.3 12.9 39.3Z" fill="#2D3F53"/>
</svg>
