<svg width="80" height="80" viewBox="0 0 80 80" fill="none" xmlns="http://www.w3.org/2000/svg">
<path d="M70.4 63.5H9.60001C8.50001 63.5 7.70001 62.6 7.70001 61.6V56.4C7.70001 55.3 8.60001 54.5 9.60001 54.5H49.9C50.3 54.5 50.6 54.8 50.6 55.2C50.6 55.6 50.3 55.9 49.9 55.9H9.60001C9.30001 55.9 9.00001 56.2 9.00001 56.5V61.7C9.00001 62 9.30001 62.3 9.60001 62.3H70.4C70.7 62.3 71 62 71 61.7V56.5C71 56.2 70.7 55.9 70.4 55.9H53.8C53.4 55.9 53.1 55.6 53.1 55.2C53.1 54.8 53.4 54.5 53.8 54.5H70.5C71.6 54.5 72.4 55.4 72.4 56.4V61.6C72.4 62.7 71.5 63.5 70.4 63.5Z" fill="#2D3F53"/>
<path d="M53.7 63.5H50C49.6 63.5 49.3 63.2 49.3 62.8V52.8C49.3 52.4 49.6 52.1 50 52.1H53.8C54.1 52.1 54.4 52.3 54.5 52.7C54.5 52.8 54.5 52.8 54.5 52.9C54.5 53.5 54.5 59.1 54.5 62.8C54.5 63 54.4 63.1 54.3 63.3C54 63.4 53.9 63.5 53.7 63.5ZM50.6 62.2H53C53 61.3 53 59.6 53 57.8C53 55.6 53 54.2 53 53.4H50.6V62.2Z" fill="#2D3F53"/>
<path d="M70.8 52.2H56.2C55.9 52.2 55.6 52 55.6 51.7C54.9 49.4 55.5 47.9 56.2 47.1C56.7 46.4 57.5 45.9 58.5 45.6C64.2 44.2 68.1 44.4 70.1 46.5C72.2 48.6 71.5 51.6 71.5 51.7C71.3 52 71.1 52.2 70.8 52.2ZM56.7 50.8H70.2C70.3 50 70.2 48.5 69.1 47.4C67.4 45.8 63.8 45.6 58.7 46.9C58.1 47.1 57.5 47.4 57.1 47.9C56.6 48.6 56.4 49.6 56.7 50.8Z" fill="#2D3F53"/>
<path d="M70.4 37.6H9.60001C8.50001 37.6 7.70001 36.7 7.70001 35.7V30.5C7.70001 29.4 8.60001 28.6 9.60001 28.6H26.2C26.6 28.6 26.9 28.9 26.9 29.3C26.9 29.7 26.6 30 26.2 30H9.60001C9.30001 30 9.00001 30.3 9.00001 30.6V35.8C9.00001 36.1 9.30001 36.4 9.60001 36.4H70.4C70.7 36.4 71 36.1 71 35.8V30.6C71 30.3 70.7 30 70.4 30H30.1C29.7 30 29.4 29.7 29.4 29.3C29.4 28.9 29.7 28.6 30.1 28.6H70.4C71.5 28.6 72.3 29.5 72.3 30.5V35.7C72.4 36.7 71.5 37.6 70.4 37.6Z" fill="#2D3F53"/>
<path d="M30.1 37.5H26.4C26.2 37.5 26.1 37.4 25.9 37.3C25.8 37.2 25.7 37 25.7 36.8C25.7 33.1 25.7 27.4 25.7 26.9C25.7 26.8 25.7 26.8 25.7 26.7C25.7 26.4 26 26.1 26.4 26.1H30.2C30.6 26.1 30.9 26.4 30.9 26.8V36.8C30.8 37.2 30.5 37.5 30.1 37.5ZM27 36.2H29.4V27.5H27C27 28.7 27 31.2 27 36.2Z" fill="#2D3F53"/>
<path d="M23.5 26.4H8.90005C8.60005 26.4 8.30005 26.2 8.30005 25.9C8.30005 25.8 7.60005 22.8 9.70005 20.7C11.8 18.7 15.7 18.4 21.3 19.8C22.2 20 23.1 20.6 23.6 21.3C24.2 22.1 24.8001 23.6 24.2001 25.9C24.1001 26.2 23.8 26.4 23.5 26.4ZM9.50005 25.1H23C23.3 23.9 23.1 22.9 22.5 22.1C22.1 21.6 21.6 21.3 20.9 21.1C15.8 19.8 12.2 20 10.5 21.6C9.50005 22.8 9.40005 24.3 9.50005 25.1Z" fill="#2D3F53"/>
<path d="M8.10002 68.1C7.70002 68.1 7.40002 67.8 7.40002 67.4V15.3C7.40002 14.9 7.70002 14.6 8.10002 14.6C8.50002 14.6 8.80002 14.9 8.80002 15.3V67.4C8.80002 67.8 8.50002 68.1 8.10002 68.1Z" fill="#2D3F53"/>
<path d="M71.8 68.3C71.4 68.3 71.1 68 71.1 67.6V15.5C71.1 15.1 71.4 14.8 71.8 14.8C72.2 14.8 72.5 15.1 72.5 15.5V67.6C72.5 68 72.2 68.3 71.8 68.3Z" fill="#2D3F53"/>
</svg>
