<svg width="80" height="80" viewBox="0 0 80 80" fill="none" xmlns="http://www.w3.org/2000/svg">
<path d="M67.8 61.4H54.3C53.1 61.4 52.1 60.4 52.1 59.2V35.8C52.1 31.9 55.3 28.7 59.2 28.7H63C66.9 28.7 70.1 31.9 70.1 35.8V59.2C70 60.4 69 61.4 67.8 61.4ZM59.2 30.1C56.1 30.1 53.5 32.7 53.5 35.8V59.2C53.5 59.7 53.9 60 54.3 60H67.8C68.3 60 68.6 59.6 68.6 59.2V35.8C68.6 32.7 66 30.1 62.9 30.1H59.2V30.1Z" fill="#2D3F53"/>
<path d="M63.4001 30.1H58.5C58.1 30.1 57.8 29.8 57.8 29.4V19.3C57.8 18.9 58.1 18.6 58.5 18.6H63.4001C63.8001 18.6 64.1 18.9 64.1 19.3V29.4C64.1 29.8 63.8001 30.1 63.4001 30.1ZM59.2001 28.7H62.7001V20H59.2001V28.7Z" fill="#2D3F53"/>
<path d="M51.4 26.6C51.4 26.6 52.7 22.2 57.7 22.3Z" fill="white"/>
<path d="M51.4001 27.3C51.3001 27.3 51.3001 27.3 51.2001 27.3C50.9001 27.2 50.7001 26.9 50.8001 26.5C50.8001 26.5 52.3001 21.7 57.7001 21.8C58.0001 21.8 58.3001 22.1 58.3001 22.4C58.3001 22.7 58.0001 23 57.7001 23C57.6001 23 57.6001 23 57.5001 23C53.2001 23 52.0001 26.8 52.0001 26.8C51.9001 27.1 51.7001 27.3 51.4001 27.3Z" fill="#2D3F53"/>
<path d="M47.2 61.4H33.7C32.5 61.4 31.5 60.4 31.5 59.2V35.8C31.5 31.9 34.7 28.7 38.6 28.7H42.4C46.3 28.7 49.5 31.9 49.5 35.8V59.2C49.4 60.4 48.4 61.4 47.2 61.4ZM38.6 30.1C35.5 30.1 32.9 32.7 32.9 35.8V59.2C32.9 59.7 33.3 60 33.7 60H47.2C47.7 60 48 59.6 48 59.2V35.8C48 32.7 45.4 30.1 42.3 30.1H38.6V30.1Z" fill="#2D3F53"/>
<path d="M42.7999 30.1H37.9C37.5 30.1 37.2 29.8 37.2 29.4V19.3C37.2 18.9 37.5 18.6 37.9 18.6H42.7999C43.1999 18.6 43.5 18.9 43.5 19.3V29.4C43.6 29.8 43.1999 30.1 42.7999 30.1ZM38.5999 28.7H42.0999V20H38.5999V28.7Z" fill="#2D3F53"/>
<path d="M30.7999 26.6C30.7999 26.6 32.0999 22.2 37.0999 22.3Z" fill="white"/>
<path d="M30.8 27.3C30.7 27.3 30.7 27.3 30.6 27.3C30.3 27.2 30.1 26.9 30.2 26.5C30.2 26.5 31.6 21.8 36.9 21.8C37 21.8 37 21.8 37.1 21.8C37.4 21.8 37.7 22.1 37.7 22.4C37.7 22.7 37.4 23 37.1 23C37 23 37 23 36.9 23C32.6 23 31.4 26.8 31.4 26.8C31.4 27.1 31.1 27.3 30.8 27.3Z" fill="#2D3F53"/>
<path d="M27 61.4H13.5C12.3 61.4 11.3 60.4 11.3 59.2V35.8C11.3 31.9 14.5 28.7 18.4 28.7H22.2C26.1 28.7 29.3 31.9 29.3 35.8V59.2C29.2 60.4 28.2 61.4 27 61.4ZM18.4 30.1C15.3 30.1 12.7 32.7 12.7 35.8V59.2C12.7 59.7 13.1 60 13.5 60H27C27.5 60 27.8 59.6 27.8 59.2V35.8C27.8 32.7 25.2 30.1 22.1 30.1H18.4V30.1Z" fill="#2D3F53"/>
<path d="M22.6 30.1H17.7C17.3 30.1 17 29.8 17 29.4V19.3C17 18.9 17.3 18.6 17.7 18.6H22.6C23 18.6 23.3 18.9 23.3 19.3V29.4C23.4 29.8 23 30.1 22.6 30.1ZM18.4 28.7H21.9V20H18.4V28.7Z" fill="#2D3F53"/>
<path d="M10.6 26.6C10.6 26.6 11.9 22.2 16.9 22.3Z" fill="white"/>
<path d="M10.6 27.3C10.5 27.3 10.5 27.3 10.4 27.3C10.1 27.2 9.90001 26.9 10 26.5C10 26.5 11.5 21.7 16.9 21.8C17.2 21.8 17.5 22.1 17.5 22.4C17.5 22.7 17.2 23 16.9 23C16.8 23 16.8 23 16.7 23C12.4 23 11.2 26.8 11.2 26.8C11.2 27.1 10.9 27.3 10.6 27.3Z" fill="#2D3F53"/>
</svg>
