<svg width="80" height="80" viewBox="0 0 80 80" fill="none" xmlns="http://www.w3.org/2000/svg">
<path d="M70.1999 58.4H34.8999C34.5999 58.4 34.2999 58.1 34.2999 57.8V53.6C34.2999 53.3 34.5999 53 34.8999 53H70.1999C70.4999 53 70.7999 53.3 70.7999 53.6V57.8C70.7999 58.1 70.5999 58.4 70.1999 58.4ZM35.4999 57.2H69.5999V54.2H35.4999V57.2Z" fill="#2D3F53"/>
<path d="M42.2 64.4C41.9 64.4 41.6 64.1 41.6 63.8C41.6 63.5 41.9 63.2 42.2 63.2L63.1 63.1C63.4 63.1 63.7 63.4 63.7 63.7C63.7 64 63.4 64.3 63.1 64.3L42.2 64.4Z" fill="#2D3F53"/>
<path d="M29.2999 68.6C28.9999 68.6 28.7 68.3 28.7 68V63.8C28.7 63.6 28.8 63.5 28.9 63.4C29 63.3 29.1999 63.2 29.2999 63.2H36.4C36.7 63.2 37 63.5 37 63.8C37 64.1 36.7 64.4 36.4 64.4H29.7999V67.4H34.5C34.8 67.4 35.0999 67.7 35.0999 68C35.0999 68.3 34.8 68.6 34.5 68.6H29.2999Z" fill="#2D3F53"/>
<path d="M40.2999 68.6C39.9999 68.6 39.7 68.3 39.7 68C39.7 67.7 39.9999 67.4 40.2999 67.4L64.5999 67.3C64.8999 67.3 65.1999 67.6 65.1999 67.9C65.1999 68.2 64.8999 68.5 64.5999 68.5L40.2999 68.6Z" fill="#2D3F53"/>
<path d="M70.4999 68.5C70.1999 68.5 69.8999 68.2 69.8999 67.9C69.8999 67.6 70.1999 67.3 70.4999 67.3H75.1999V64.3H68.8999C68.5999 64.3 68.2999 64 68.2999 63.7C68.2999 63.4 68.5999 63.1 68.8999 63.1H75.7999C76.0999 63.1 76.3999 63.4 76.3999 63.7V67.9C76.3999 68.1 76.2999 68.2 76.1999 68.3C76.0999 68.4 75.8999 68.5 75.7999 68.5H70.4999Z" fill="#2D3F53"/>
<path d="M73.2 75.6H68C67.8 75.6 67.6 75.5 67.5 75.2L60.2 58C60.1 57.8 60.1 57.6 60.3 57.5C60.4 57.3 60.6 57.2 60.8 57.2H66.2C66.4 57.2 66.6 57.3 66.7 57.6L73.8 74.8C73.9 75 73.9 75.2 73.7 75.3C73.6 75.5 73.4 75.6 73.2 75.6ZM68.3 74.4H72.3L65.7 58.4H61.5L68.3 74.4Z" fill="#2D3F53"/>
<path d="M37.3 75.6H32C31.8 75.6 31.6 75.5 31.5 75.3C31.4 75.1 31.4 74.9 31.4 74.8L38.5 57.6C38.6 57.4 38.8 57.2 39 57.2H44.4C44.6 57.2 44.8 57.3 44.9 57.5C45 57.7 45 57.9 45 58L37.8 75.2C37.7 75.4 37.5 75.6 37.3 75.6ZM32.9 74.4H36.9L43.6 58.4H39.4L32.9 74.4Z" fill="#2D3F53"/>
<path d="M44.7999 40.9C44.6999 40.9 44.5999 40.9 44.4999 40.8C44.3999 40.7 44.3999 40.6 44.3999 40.5V20.8C44.3999 20.4 44.6999 20 45.1999 20H50.7999C51.1999 20 51.5999 20.3 51.5999 20.8V22C51.5999 22.4 51.2999 22.8 50.7999 22.8H47.4999L48.4999 40.4C48.4999 40.5 48.4999 40.7 48.3999 40.8C48.2999 40.9 48.1999 40.9 48.0999 40.9H44.7999ZM45.2999 20.9V39.9H47.4999L46.4999 22.3C46.4999 22.2 46.4999 22 46.5999 21.9C46.6999 21.8 46.7999 21.8 46.8999 21.8H50.4999V20.9H45.2999Z" fill="#2D3F53"/>
<path d="M44.7999 28.7H30.9999C30.6999 28.7 30.4999 28.5 30.4999 28.2C30.4999 27.9 30.6999 27.7 30.9999 27.7H44.8999C45.1999 27.7 45.3999 27.9 45.3999 28.2C45.2999 28.5 45.0999 28.7 44.7999 28.7Z" fill="#2D3F53"/>
<path d="M44.8 31.3H37.9C37.6 31.3 37.4 31.1 37.4 30.8C37.4 30.5 37.6 30.3 37.9 30.3H44.8C45.1 30.3 45.3 30.5 45.3 30.8C45.3 31.1 45.1 31.3 44.8 31.3Z" fill="#2D3F53"/>
<path d="M44.8 35H34.1C33.8 35 33.6 34.8 33.6 34.5C33.6 34.2 33.8 34 34.1 34H44.9C45.2 34 45.4 34.2 45.4 34.5C45.4 34.8 45.1 35 44.8 35Z" fill="#2D3F53"/>
<path d="M24.2999 18C24.0999 18 23.8999 17.8 23.7999 17.6L22.7 9.6C22.7 9.4 22.8 9.2 22.9 9.1L25.7 7.4C25.8 7.3 26 7.3 26.2 7.4C26.3 7.5 26.4 7.6 26.5 7.8L27.5 16.4C27.5 16.7 27.3 16.9 27.1 16.9C26.8 16.9 26.6 16.7 26.6 16.5L25.7 8.7L23.7999 9.9L24.9 17.6C24.8 17.8 24.5999 18 24.2999 18Z" fill="#2D3F53"/>
<path d="M42.2 28.6H39.7C39.6 28.6 39.3999 28.5 39.2999 28.4C39.1999 28.3 39.2 28.2 39.2 28L41.5 7.7C41.5 7.5 41.5999 7.4 41.7999 7.3C41.8999 7.2 42.0999 7.2 42.2999 7.3L45 9.2C45.2 9.3 45.2 9.5 45.2 9.7L42.5999 28.2C42.5999 28.4 42.4 28.6 42.2 28.6ZM40.2 27.6H41.7999L44.2999 9.8L42.4 8.6L40.2 27.6Z" fill="#2D3F53"/>
<path d="M32.5 28.6C32.4 28.6 32.3 28.6 32.2 28.5C32.1 28.4 32.1 28.3 32.1 28.2V4.9C32.1 4.6 32.3 4.4 32.6 4.4H35.5C35.8 4.4 36 4.6 36 4.9V28.1C36 28.4 35.8 28.6 35.5 28.6H32.5ZM33 5.4V27.7H35V5.4H33V5.4Z" fill="#2D3F53"/>
<path d="M28.4999 21.9C28.2999 21.9 27.9999 21.7 27.9999 21.5L26.9999 6.6C26.9999 6.4 27.0999 6.2 27.2999 6.1L30.1999 5.1C30.2999 5.1 30.4999 5.1 30.5999 5.2C30.6999 5.3 30.7999 5.4 30.7999 5.6L31.6999 19.5C31.6999 19.8 31.4999 20 31.2999 20C30.9999 20 30.7999 19.8 30.7999 19.6L29.8999 6.2L27.8999 6.9L28.8999 21.4C28.9999 21.6 28.7999 21.9 28.4999 21.9C28.4999 21.9 28.5999 21.9 28.4999 21.9Z" fill="#2D3F53"/>
<path d="M38.6999 28.6H35.8999C35.7999 28.6 35.5999 28.5 35.5999 28.4C35.4999 28.3 35.4999 28.2 35.4999 28L36.8999 5.3C36.8999 5.2 36.9999 5 37.0999 4.9C37.2999 5 37.3999 5 37.4999 5L40.3999 6C40.5999 6.1 40.6999 6.3 40.6999 6.5L39.0999 28.2C39.1999 28.4 38.9999 28.6 38.6999 28.6ZM36.4999 27.7H38.2999L39.7999 6.8L37.7999 6.1L36.4999 27.7Z" fill="#2D3F53"/>
<path d="M10.2 51.3H7.09998C6.99998 51.3 6.79998 51.2 6.79998 51.2C6.69998 51.1 6.69998 51 6.69998 50.8L7.69998 33.2H4.39998C3.99998 33.2 3.59998 32.9 3.59998 32.4V31.2C3.59998 30.8 3.89998 30.4 4.39998 30.4H9.99998C10.4 30.4 10.8 30.7 10.8 31.2V50.9C10.8 51 10.8 51.1 10.7 51.2C10.5 51.2 10.4 51.3 10.2 51.3ZM7.59998 50.3H9.79998V31.3H4.49998V32.2H8.09998C8.19998 32.2 8.39998 32.3 8.39998 32.3C8.49998 32.4 8.49998 32.5 8.49998 32.7L7.59998 50.3Z" fill="#2D3F53"/>
<path d="M31.8 51.3C31.7 51.3 31.6 51.3 31.5 51.2C31.4 51.1 31.4 51 31.4 50.9V31.1C31.4 30.7 31.7 30.3 32.2 30.3H37.8C38.2 30.3 38.6 30.6 38.6 31.1V32.3C38.6 32.7 38.3 33.1 37.8 33.1H34.5L35.5 50.7C35.5 50.8 35.5 51 35.4 51.1C35.3 51.2 35.2 51.2 35.1 51.2L31.8 51.3ZM32.3 31.3V50.3H34.5L33.5 32.7C33.5 32.6 33.5 32.4 33.6 32.3C33.7 32.2 33.8 32.2 33.9 32.2H37.5V31.3H32.3V31.3Z" fill="#2D3F53"/>
<path d="M31.8 39H10.3C9.99999 39 9.79999 38.8 9.79999 38.5C9.79999 38.2 9.99999 38 10.3 38H31.8C32.1 38 32.3 38.2 32.3 38.5C32.3 38.8 32.1 39 31.8 39Z" fill="#2D3F53"/>
<path d="M31.8 41.6H10.3C9.99999 41.6 9.79999 41.4 9.79999 41.1C9.79999 40.8 9.99999 40.6 10.3 40.6H31.8C32.1 40.6 32.3 40.8 32.3 41.1C32.3 41.4 32.1 41.6 31.8 41.6Z" fill="#2D3F53"/>
<path d="M31.8 45.3H10.3C9.99999 45.3 9.79999 45.1 9.79999 44.8C9.79999 44.5 9.99999 44.3 10.3 44.3H31.8C32.1 44.3 32.3 44.5 32.3 44.8C32.3 45.1 32.1 45.3 31.8 45.3Z" fill="#2D3F53"/>
<path d="M12.7 38.9C12.5 38.9 12.3 38.7 12.2 38.5L9.69995 20C9.69995 19.8 9.79995 19.6 9.89995 19.5L12.7 17.8C12.8 17.7 13 17.7 13.2 17.8C13.3 17.9 13.4 18 13.5 18.2L15.8 38.5C15.8 38.6 15.8 38.8 15.7 38.9C15.6 39 15.5 39.1 15.3 39.1L12.7 38.9ZM10.6 20.2L13.1 38H14.7L12.6 19L10.6 20.2Z" fill="#2D3F53"/>
<path d="M29.2 38.9H26.7C26.6 38.9 26.3999 38.8 26.2999 38.7C26.1999 38.6 26.2 38.5 26.2 38.3L28.5 18C28.5 17.8 28.5999 17.7 28.7999 17.6C28.8999 17.5 29.0999 17.5 29.2999 17.6L32.0999 19.3C32.2999 19.4 32.2999 19.6 32.2999 19.8L29.7 38.3C29.6 38.8 29.4 38.9 29.2 38.9ZM27.2 38H28.7999L31.2999 20.2L29.2999 19L27.2 38Z" fill="#2D3F53"/>
<path d="M19.5 39C19.4 39 19.3 39 19.2 38.9C19 38.7 19 38.6 19 38.5V15.2C19 14.9 19.2 14.7 19.5 14.7H22.4C22.7 14.7 22.9 14.9 22.9 15.2V38.4C22.9 38.7 22.7 38.9 22.4 38.9L19.5 39ZM20 15.7V38H22V15.7H20Z" fill="#2D3F53"/>
<path d="M16 38.9C15.8 38.9 15.5 38.7 15.5 38.5L14 16.9C14 16.7 14.1 16.5 14.3 16.4L17.2 15.4C17.3 15.4 17.5 15.4 17.6 15.5C17.7 15.6 17.8 15.7 17.8 15.9L19.2 38.5C19.2 38.6 19.2 38.8 19.1 38.9C19 39 18.9 39 18.8 39L16 38.9ZM14.9 17.2L16.4 38H18.2L16.9 16.6L14.9 17.2Z" fill="#2D3F53"/>
<path d="M25.7 38.9H22.9C22.8 38.9 22.6 38.8 22.6 38.7C22.5 38.6 22.5 38.5 22.5 38.3L23.9 15.6C23.9 15.5 24 15.3 24.1 15.2C24.2 15.1 24.4 15.1 24.5 15.1L27.4 16.1C27.6 16.2 27.7 16.4 27.7 16.6L26.1 38.3C26.2 38.8 26 38.9 25.7 38.9ZM23.5 38H25.3L26.8 17.1L24.8 16.4L23.5 38Z" fill="#2D3F53"/>
</svg>
